<svg width="750" height="500" viewBox="0 0 750 500" fill="none" xmlns="http://www.w3.org/2000/svg"><path d="M330.69 89.74l17.9 56.64h-12.96l-5.71-19.53.77-37.11z" fill="#EBEBEB"/><path d="M366.86 146.32H99.48v15.98h267.38v-15.98z" fill="#E0E0E0"/><path d="M149.68 158.81h-12.94v24.53h12.94v-24.53zM316.61 158.81h-12.93v24.53h12.93v-24.53z" fill="#E0E0E0"/><path d="M108.56 72.24s-12 9.14-.5 21.22a1.057 1.057 0 00.76.32l104.84-.61s9-10 1.52-21.62l-106.62.69z" fill="#EBEBEB"/><path d="M190.49 81.78c0 .11-13.06.21-29.16.21s-29.16-.1-29.16-.21c0-.11 13.06-.21 29.16-.21s29.16.09 29.16.21zM174.18 85.57c0 .12-6.14.21-13.71.21-7.57 0-13.71-.09-13.71-.21s6.14-.21 13.71-.21c7.57 0 13.71.09 13.71.21zM201.21 92.83c-.07 0 .23-1.2.55-3.15a44.85 44.85 0 00.61-7.64 45.866 45.866 0 00-.75-7.64c-.36-1.94-.69-3.12-.62-3.14.138.255.242.528.31.81.17.53.38 1.3.6 2.27a37.225 37.225 0 01.15 15.4c-.21 1-.4 1.75-.56 2.28a3.76 3.76 0 01-.29.81zM209 71.42c.187.233.344.489.47.76.169.305.322.62.46.94.17.38.37.8.54 1.29a22.984 22.984 0 011 3.47c.303 1.455.48 2.934.53 4.42a25.171 25.171 0 01-.38 4.41 23.791 23.791 0 01-.94 3.5c-.16.49-.36.91-.52 1.29a8.704 8.704 0 01-.45 1c-.123.271-.274.53-.45.77-.08 0 .51-1.17 1.13-3.11.364-1.131.645-2.288.84-3.46a27.92 27.92 0 00.35-4.35 27.468 27.468 0 00-.42-4.34 25.174 25.174 0 00-.89-3.45c-.71-1.98-1.27-3.1-1.27-3.14zM125.1 93a3.579 3.579 0 01-.49-.7 7.385 7.385 0 01-.49-.88c-.17-.35-.38-.74-.56-1.2a18.651 18.651 0 01-1-3.31 20.617 20.617 0 01-.4-4.22c.03-1.418.204-2.828.52-4.21a17.648 17.648 0 011.11-3.28c.173-.408.37-.806.59-1.19.149-.299.319-.587.51-.86.31-.46.48-.71.51-.69.03.02-.6 1.06-1.34 2.85a20.723 20.723 0 00-1 3.25 21.98 21.98 0 00-.48 4.13c-.004 1.391.117 2.78.36 4.15.22 1.112.528 2.206.92 3.27.67 1.79 1.32 2.82 1.24 2.89zM113.78 95.53a5.273 5.273 0 01-.54-.8 8.256 8.256 0 01-.54-1c-.2-.4-.44-.84-.64-1.35a22.89 22.89 0 01-1.2-3.71 26.059 26.059 0 01-.59-4.73 25.46 25.46 0 01.38-4.75c.225-1.276.56-2.531 1-3.75.166-.47.357-.93.57-1.38.149-.342.316-.676.5-1 .131-.293.302-.566.51-.81.07 0-.6 1.23-1.3 3.3a24.294 24.294 0 00-.93 3.72 24.41 24.41 0 00.2 9.33c.269 1.25.637 2.478 1.1 3.67.83 2.05 1.56 3.21 1.48 3.26z" fill="#E0E0E0"/><path d="M209.81 125.09v20.07H171v-20.07h38.81z" fill="#EBEBEB"/><path d="M84.43 135.31v.53A11.491 11.491 0 0096 146.61h115.62v-1.45h-27.45a10.001 10.001 0 010-20h27.45V123L96 123.35a11.575 11.575 0 00-10.801 7.414 11.58 11.58 0 00-.769 4.546z" fill="#E0E0E0"/><path d="M209.81 135.39c0 .12-8 .22-17.82.22s-17.83-.1-17.83-.22 8-.21 17.83-.21c9.83 0 17.82.1 17.82.21zM209.25 139.91c0 .12-7.55.22-16.87.22s-16.87-.1-16.87-.22 7.55-.21 16.87-.21 16.87.1 16.87.21zM209.81 144.05c0 .12-6.79.21-15.16.21-8.37 0-15.17-.09-15.17-.21s6.79-.21 15.17-.21c8.38 0 15.16.09 15.16.21zM209.81 131.33c0 .12-7.82.21-17.46.21s-17.46-.09-17.46-.21 7.81-.21 17.46-.21c9.65 0 17.46.1 17.46.21zM209.25 127.27c0 .12-7 .21-15.54.21s-15.55-.09-15.55-.21 7-.21 15.55-.21 15.54.09 15.54.21z" fill="#E0E0E0"/><path d="M98.44 123.69a27.244 27.244 0 00-2.44 2.92 14.868 14.868 0 00.21 17.19 27.807 27.807 0 002.52 2.87 5.146 5.146 0 01-.83-.62A13.546 13.546 0 0196 144a14.61 14.61 0 01-.21-17.54c.55-.768 1.18-1.475 1.88-2.11.228-.252.486-.474.77-.66z" fill="#F5F5F5"/><path d="M94.53 123.26a26.645 26.645 0 00-2.45 2.92 14.87 14.87 0 00.2 17.2 28.13 28.13 0 002.52 2.86 4.487 4.487 0 01-.83-.62c-.73-.616-1.39-1.31-1.97-2.07a14.611 14.611 0 01-.17-17.55c.55-.768 1.18-1.475 1.88-2.11.245-.245.52-.456.82-.63zM173.09 123.69a25.976 25.976 0 00-2.46 2.92 14.875 14.875 0 00.21 17.19 26.433 26.433 0 002.52 2.87 5.124 5.124 0 01-.83-.62 13.1 13.1 0 01-1.93-2.05 14.611 14.611 0 01-.21-17.54 12.913 12.913 0 011.88-2.11c.243-.255.519-.477.82-.66z" fill="#F5F5F5"/><path d="M169.18 123.26a27.317 27.317 0 00-2.46 2.92 14.884 14.884 0 00.21 17.2 28.044 28.044 0 002.52 2.86 4.487 4.487 0 01-.83-.62 13.097 13.097 0 01-1.93-2.07 14.611 14.611 0 01-.21-17.54c.55-.768 1.18-1.475 1.88-2.11.244-.248.52-.463.82-.64zM111.6 138.13l-.11-8.16a5.714 5.714 0 00-.29-2.1 1.994 1.994 0 00-1.55-1.3c-1-.46-2.61.4-3.32 1.57a7.695 7.695 0 00-.81 4 57.958 57.958 0 00.32 6.44 7.23 7.23 0 00.76 2.95 2.462 2.462 0 002.472 1.494 2.454 2.454 0 001.399-.587c.394-.338.67-.792.789-1.297a8.219 8.219 0 00.34-3.01zM156.5 135.79c0 .11-8.36.21-18.66.21s-18.67-.1-18.67-.21c0-.11 8.35-.22 18.67-.22 10.32 0 18.66.1 18.66.22zM103.85 122.89l-.21-19.02h10.35l.36 19.02h-10.5z" fill="#F5F5F5"/><path d="M113.38 107.25a26.672 26.672 0 01-4.81.22 26.672 26.672 0 01-4.81-.22 28.435 28.435 0 014.81-.21 28.435 28.435 0 014.81.21zM113.38 110.19a27.236 27.236 0 01-4.81.21 27.236 27.236 0 01-4.81-.21 27.236 27.236 0 014.81-.21 27.236 27.236 0 014.81.21zM113.38 113.12a26.672 26.672 0 01-4.81.22 26.672 26.672 0 01-4.81-.22 28.435 28.435 0 014.81-.21 28.435 28.435 0 014.81.21zM113.38 116.06a27.236 27.236 0 01-4.81.21 27.236 27.236 0 01-4.81-.21 27.236 27.236 0 014.81-.21 27.236 27.236 0 014.81.21zM113.38 119a26.672 26.672 0 01-4.81.22 26.672 26.672 0 01-4.81-.22 28.435 28.435 0 014.81-.21 28.435 28.435 0 014.81.21z" fill="#E0E0E0"/><path d="M103.09 103.37h114.73c1.42 6.29 1.22 13.22 0 20.55H103.58v-1.4h7a3.29 3.29 0 003.3-3.29v-11.38a3.284 3.284 0 00-.967-2.33 3.288 3.288 0 00-2.333-.96h-7.47l-.02-1.19z" fill="#EBEBEB"/><path d="M130.21 113.66h1.92a.34.34 0 01.2 0 .395.395 0 01.21.36.222.222 0 010 .12c0 .16-.08.33-.12.49a5.497 5.497 0 01-1.2 2.17 2.295 2.295 0 01-1.64.84h-.23a1.889 1.889 0 01-1.3-1 4.289 4.289 0 01-.57-2.3 6.225 6.225 0 01.23-1.64 5.557 5.557 0 011.13-2.22 2.326 2.326 0 011.73-.92c.25-.001.497.057.72.17.27.147.508.347.701.587.192.241.334.517.419.813a.405.405 0 01.05.19.364.364 0 01-.06.2.38.38 0 01-.35.21h-.13a.4.4 0 01-.166-.098.404.404 0 01-.104-.162 1.893 1.893 0 00-.23-.45 1.067 1.067 0 00-.91-.55c-.232.01-.455.09-.64.23a3.364 3.364 0 00-1 1.51 5.645 5.645 0 00-.45 2.16c-.017.58.092 1.156.32 1.69a1.121 1.121 0 001 .75 1.345 1.345 0 00.93-.56 4.929 4.929 0 001-1.77h-1.37c-.3 0-.45-.2-.46-.46a.547.547 0 010-.14.433.433 0 01.37-.22zM136.73 109.92s0 .08.05.14c.08.28.53 2.65 1.35 7.11a.335.335 0 010 .1.422.422 0 01-.06.21.372.372 0 01-.34.21h-.07a.374.374 0 01-.201-.096.377.377 0 01-.109-.194l-.46-2.36h-2.36l-1.13 2.37a.215.215 0 010 .08.422.422 0 01-.35.2.397.397 0 01-.36-.21.401.401 0 01-.05-.2.482.482 0 010-.12c.07-.17.19-.43.35-.78 1.647-3.6 2.647-5.727 3-6.38a.454.454 0 01.16-.197.453.453 0 01.24-.083.427.427 0 01.34.2zm-.52 1.59l-1.27 2.68h1.8l-.53-2.68zM143.13 117.69h-3.46a.438.438 0 01-.22-.06.651.651 0 01-.2-.44c0-.14.333-2.5 1-7.08a.752.752 0 010-.15.37.37 0 01.37-.26.407.407 0 01.19 0 .396.396 0 01.22.37c0 .31-.11 1-.24 1.94l-.62 4.78h2.94a.737.737 0 01.22 0 .39.39 0 01.26.39.26.26 0 010 .13.468.468 0 01-.46.38zM147.85 109.92a.908.908 0 01.06.14c.08.28.53 2.65 1.35 7.11a.335.335 0 010 .1.422.422 0 01-.06.21.375.375 0 01-.34.21h-.07a.378.378 0 01-.32-.29L148 115h-2.36l-1.13 2.37a.18.18 0 010 .08.443.443 0 01-.35.2c-.08 0-.16-.02-.23-.06a.438.438 0 01-.19-.35.27.27 0 010-.12c.07-.17.19-.43.35-.78 1.653-3.6 2.653-5.727 3-6.38a.456.456 0 01.4-.28.425.425 0 01.36.24zm-.51 1.59l-1.27 2.68h1.8l-.53-2.68zM153.36 114c.27.75.48 1.33.63 1.73.36 1 .53 1.51.53 1.56a.409.409 0 01-.21.352.397.397 0 01-.2.048.356.356 0 01-.34-.28l-.07-.17c-.18-.43-.49-1.24-.92-2.44l-2 2.68a.448.448 0 01-.155.148.45.45 0 01-.205.062.543.543 0 01-.22 0 .386.386 0 01-.19-.35v-.09c.048-.123.119-.235.21-.33.66-.85 1.38-1.86 2.17-3-.08-.23-.16-.45-.24-.65-.73-2-1.1-3-1.1-3.06a.53.53 0 010-.21.364.364 0 01.14-.151.37.37 0 01.2-.049.41.41 0 01.38.22l1.16 3.12 2.3-3.14a.473.473 0 01.37-.2.407.407 0 01.19 0 .377.377 0 01.2.36.435.435 0 010 .19l-2.63 3.65zM161.92 109.74a.408.408 0 01.19.05.388.388 0 01.22.35c-.56 4.47-.88 6.89-.93 7.25a4.484 4.484 0 01-.74 1.89 2.704 2.704 0 01-3.41.83A2.464 2.464 0 01156 119a.45.45 0 010-.2.53.53 0 010-.21.42.42 0 01.153-.149.415.415 0 01.207-.051.377.377 0 01.31.17 2.239 2.239 0 001.77 1 1.793 1.793 0 001.38-.7c.47-.628.736-1.386.76-2.17a2.061 2.061 0 01-1.75.94h-.23a1.848 1.848 0 01-.774-.344 1.844 1.844 0 01-.536-.656 4.2 4.2 0 01-.58-2.3c0-.42 0-.85.06-1.3.06-.7.22-1.69.46-3a.602.602 0 010-.12.39.39 0 01.37-.28c.071 0 .141.021.2.06a.374.374 0 01.21.33c0 .21-.07.73-.19 1.57a23.211 23.211 0 00-.28 2.41 5 5 0 00.31 1.88c.24.56.58.84 1 .84h.14c.42-.152.773-.446 1-.83.415-.57.704-1.221.85-1.91l.53-3.94a.483.483 0 01.05-.17.39.39 0 01.5-.13z" fill="#FAFAFA"/><path d="M213.51 124.19c-.12 0-.21-4.72-.21-10.54 0-5.82.09-10.55.21-10.55s.21 4.72.21 10.55c0 5.83-.09 10.54-.21 10.54z" fill="#F5F5F5"/><path d="M119.63 124.19c-.12 0-.21-4.72-.21-10.54 0-5.82.09-10.55.21-10.55s.21 4.72.21 10.55c0 5.83-.1 10.54-.21 10.54z" fill="#E0E0E0"/><path d="M215.52 124.19c-.11 0-.21-4.72-.21-10.54 0-5.82.1-10.55.21-10.55.11 0 .22 4.72.22 10.55 0 5.83-.1 10.54-.22 10.54z" fill="#F5F5F5"/><path d="M117.75 124.19c-.12 0-.22-4.72-.22-10.54 0-5.82.1-10.55.22-10.55s.21 4.72.21 10.55c0 5.83-.1 10.54-.21 10.54zM185.69 106.57l12.13 9.78.11.09h-.14l-1.61.43-10.24 2.68-9.28-3.93-2.66-1.13-.7-.3-.17-.08h-.06.06l.18.07.7.28 2.64 1.1 9.3 3.88 10.24-2.7 1.61-.42v.12l-12.1-9.82" fill="#E0E0E0"/><path d="M196.7 114.8l.67.62.88-.19-.39.82.46.78-.9-.11-.6.68-.17-.9-.83-.36.79-.44.09-.9zM185.07 118.65l.45.38.57-.16-.22.55.33.49-.59-.04-.36.46-.15-.57-.55-.21.5-.31.02-.59zM172.22 113.38l.72.05.45-.57.18.7.68.25-.61.38-.03.72-.55-.46-.7.2.27-.67-.41-.6zM202.14 106.73l.72.04.45-.56.18.7.67.24-.61.39-.02.72-.56-.46-.69.2.26-.67-.4-.6zM185.1 106.26l.46.02.29-.36.11.45.44.16-.39.24-.02.46-.36-.29-.44.13.17-.43-.26-.38z" fill="#E0E0E0"/><path d="M203.15 107.23s-3.92-.08-8.76-.29c-4.84-.21-8.76-.41-8.75-.46.01-.05 3.92.09 8.76.29 4.84.2 8.75.42 8.75.46zM207.56 103.19H91.2c-1.53-3.46-1.9-6.74 0-9.69h116.36a11.28 11.28 0 010 9.69z" fill="#E0E0E0"/><path d="M178.33 96.27h-63.04v3.52h63.04v-3.52z" fill="#EBEBEB"/><path d="M95.66 103.24c-.387-.32-.7-.719-.92-1.17a8.681 8.681 0 01-1.06-3.44 8.551 8.551 0 01.45-3.57 3.4 3.4 0 01.7-1.31c-.11.475-.25.943-.42 1.4a10.4 10.4 0 00-.31 3.45c.113 1.153.42 2.279.91 3.33.246.422.463.859.65 1.31zM98.18 103.24c-.387-.32-.7-.719-.92-1.17a8.52 8.52 0 01-1.06-3.44 8.391 8.391 0 01.45-3.57c.134-.483.373-.93.7-1.31-.11.475-.25.943-.42 1.4-.3 1.124-.405 2.29-.31 3.45a9.78 9.78 0 00.91 3.33c.246.422.463.859.65 1.31z" fill="#E0E0E0"/><path d="M202.85 103c.46-1.542.735-3.133.82-4.74a20.176 20.176 0 00-.77-4.75 9.876 9.876 0 01-.05 9.49zM200.68 103c-.12 0 .37-2.07.35-4.64-.02-2.57-.49-4.6-.36-4.63a14.072 14.072 0 010 9.27h.01z" fill="#F5F5F5"/><path d="M250.84 43.18h79.85v104.2h-79.31l-.54-104.2z" fill="#E0E0E0"/><path d="M245.03 146.83h79.39V43.69h-79.39v103.14z" fill="#fff"/><path d="M324.82 43.3v103.92h-80.18V43.3h80.18zM324 146.44V44.08h-78.6v102.36H324z" fill="#E0E0E0"/><path d="M314.1 54.88h-60.78v80.8h60.78v-80.8z" fill="#fff"/><path d="M253.2 54.86v22.5c0 14.21.05 34.38.09 58.3l-.18-.19h60.77l-.21.21v-80.8l.33.12-44.14-.09h-16.64 16.54l44.24-.22h.16v81.17H253v-.18c0-24 .07-44.18.09-58.42 0-7.09 0-12.69.05-16.53v-4.36-1.12c0-.26.06-.39.06-.39z" fill="#E0E0E0"/><path d="M244.85 146.83a11.18 11.18 0 011.07-1.75c.71-1 1.71-2.47 2.85-4 1.14-1.53 2.23-2.92 3-3.89a8.927 8.927 0 011.39-1.51c-.338.595-.726 1.16-1.16 1.69l-2.94 4-2.94 3.95a10.12 10.12 0 01-1.27 1.51zM245 43.69a58.37 58.37 0 014.24 5.46 58.141 58.141 0 013.92 5.71A55.592 55.592 0 01249 49.4a59.004 59.004 0 01-4-5.71zM314 55.27a72.806 72.806 0 015.07-5.93 72 72 0 015.38-5.65 74.637 74.637 0 01-5.08 5.93 73.023 73.023 0 01-5.37 5.65zM324.43 146.83a68.617 68.617 0 01-5.15-5.39 67.07 67.07 0 01-4.83-5.67 71.861 71.861 0 015.14 5.39 70.623 70.623 0 014.84 5.67zM256.1 135.66s6.54-20.26 10.43-22.42a37.36 37.36 0 0117.07-4.62c9-.08 13.28.59 18.56 4.22 6.09 4.19 10.22 22.61 10.22 22.61M274.24 75.32c-5.59.25-7 7.76-6.58 12 .18 2 .8 4.24-.22 6-.73 1.25-2.16 2-2.76 3.31-.74 1.59 0 3.43.5 5.1.5 1.67.76 3.79-.58 4.93a48.411 48.411 0 009.65 1.81 16.332 16.332 0 009.46-2.1" fill="#E0E0E0"/><path d="M270.25 90.31c-3.69-8.45 1.31-13.62 4.58-15.48a13.789 13.789 0 016.48-1.4 23.71 23.71 0 016.57.58 11.848 11.848 0 015.7 3.19c2.69 2.86 3.31 7.1 3.07 11a30.68 30.68 0 01-3.86 13.17 3.15 3.15 0 01-1.14 1.33 1.188 1.188 0 01-1.58-.28" fill="#E0E0E0"/><path d="M282.7 119.3c3.79.26 7.11-3 7.5-8.85l2-29.72-.14 2.06a2.4 2.4 0 00-2.15-2.42l-11.77-1.21a7.161 7.161 0 00-7.89 6.71c-.27 4.52-.43 10.06.12 13.43 1.1 6.78 6.3 7.63 6.3 7.63l-.4 4.93a6.88 6.88 0 006.4 7.44h.03z" fill="#F5F5F5"/><path d="M272.54 89.7a.86.86 0 00.84.87.843.843 0 00.817-.47c.048-.1.077-.209.083-.32a.87.87 0 00-.85-.87.83.83 0 00-.89.79zM271.49 88.74c.11.11.76-.38 1.7-.38s1.63.47 1.73.36c.1-.11-.06-.26-.36-.48a2.489 2.489 0 00-1.39-.42 2.32 2.32 0 00-1.35.44c-.29.23-.38.43-.33.48zM281.54 89.7a.86.86 0 00.84.87.816.816 0 00.813-.468c.047-.101.073-.21.077-.322a.86.86 0 00-.84-.87.816.816 0 00-.813.469.831.831 0 00-.077.321z" fill="#E0E0E0"/><path d="M280.7 88.89c.1.11.76-.38 1.7-.38s1.62.47 1.73.35c.11-.12-.06-.25-.37-.47a2.43 2.43 0 00-1.38-.42 2.25 2.25 0 00-1.35.44c-.29.22-.39.43-.33.48zM277.32 95.85a5.533 5.533 0 00-1.53-.27c-.23 0-.46-.08-.5-.24a1.17 1.17 0 01.16-.71c.22-.58.45-1.18.7-1.82a31.016 31.016 0 001.57-4.81 31.95 31.95 0 00-2 4.63c-.24.64-.46 1.25-.67 1.84a1.377 1.377 0 00-.13.93.617.617 0 00.4.35c.13.037.265.057.4.06a6.38 6.38 0 001.6.04z" fill="#E0E0E0"/><path d="M276.7 106.93a17.305 17.305 0 009.09-2.45s-2.43 4.7-9.22 4.09l.13-1.64z" fill="#EBEBEB"/><path d="M277.72 98.1a1.696 1.696 0 011.51-.63 1.531 1.531 0 011.07.57 1 1 0 01.07 1.11 1.128 1.128 0 01-1.22.32 3.564 3.564 0 01-1.2-.71 1.01 1.01 0 01-.27-.28.32.32 0 010-.35" fill="#E0E0E0"/><path d="M280.08 96.49c-.16 0-.16 1-1 1.73s-1.95.61-2 .76c-.05.15.24.19.7.2a2.49 2.49 0 001.63-.57c.441-.363.724-.883.79-1.45.06-.43-.05-.68-.12-.67zM280.27 87.25c.09.26 1 .13 2.13.26s2 .43 2.13.2c.13-.23-.09-.35-.45-.6a3.567 3.567 0 00-1.58-.54 3.351 3.351 0 00-1.66.2c-.41.16-.61.36-.57.48zM271.82 86c.17.21.81 0 1.59 0s1.43.14 1.59-.09c.16-.23 0-.32-.33-.52a2.18 2.18 0 00-1.29-.34 2.1 2.1 0 00-1.26.43c-.28.23-.37.45-.3.52z" fill="#E0E0E0"/><path d="M275.58 74.43c6.57-3.7 13.63-1.11 18.95 4.23 1.18 1.18 2.23 2.57 3.76 3.22 1.53.65 3.85.6 4.84 2.1 1.14 1.76-.4 4.24.43 6.17.78 1.77 3.21 2.28 4.11 4 .71 1.34.27 3-.07 4.45-.34 1.45-.46 3.26.65 4.29l-14.14 5.37a3.676 3.676 0 01-2 .22c-2-.4-2.16-2.26-2-3.8a6.377 6.377 0 00-.09-3.42c-.58-1.25-2-1.91-2.55-3.18-.92-2.24 1.62-4.57 1.31-7a4.509 4.509 0 00-2.88-3.27c-1.39-.6-2.93-.8-4.37-1.27-3.34-1.06-6.09-4.12-7.51-7.52a3.658 3.658 0 011.52-4.61l.04.02zM686.99 79.16H559.7v132.69h127.29V79.16z" fill="#E0E0E0"/><path d="M678.37 79.16H551.08v132.69h127.29V79.16z" fill="#FAFAFA"/><path d="M678.41 211.89H551V79.12h127.41v132.77zm-127.29-.08h127.21V79.2H551.12v132.61z" fill="#E0E0E0"/><path d="M661.26 97h-93.07v97.02h93.07V97z" fill="#fff"/><path d="M568.19 194.66a15.256 15.256 0 01-2.3 2.67 271.31 271.31 0 01-5.91 6c-2.34 2.31-4.5 4.36-6.09 5.82a14.12 14.12 0 01-2.69 2.24 14.905 14.905 0 012.29-2.66c1.49-1.57 3.58-3.7 5.93-6 2.35-2.3 4.5-4.37 6.09-5.83a14.195 14.195 0 012.68-2.24zM661.26 194.42a15.66 15.66 0 012.67 2.3c1.57 1.49 3.69 3.58 6 5.92s4.36 4.49 5.81 6.08a14.896 14.896 0 012.25 2.69 14.145 14.145 0 01-2.66-2.29c-1.57-1.48-3.7-3.58-6-5.93-2.3-2.35-4.38-4.5-5.83-6.09a14.195 14.195 0 01-2.24-2.68zM661 97.26a15.267 15.267 0 012.3-2.67c1.49-1.57 3.57-3.69 5.92-6s4.49-4.36 6.08-5.82a14.103 14.103 0 012.7-2.24 14.933 14.933 0 01-2.29 2.66c-1.49 1.57-3.58 3.7-5.93 6-2.35 2.3-4.5 4.37-6.09 5.83a14.174 14.174 0 01-2.69 2.24zM567.93 97.5a15.725 15.725 0 01-2.67-2.3c-1.57-1.49-3.69-3.57-6-5.92s-4.37-4.49-5.82-6.08a14 14 0 01-2.24-2.69 14.692 14.692 0 012.65 2.29c1.57 1.48 3.7 3.58 6 5.93 2.3 2.35 4.38 4.5 5.83 6.09a14.147 14.147 0 012.25 2.68z" fill="#E0E0E0"/><path d="M661 194v-.47-1.36-5.24c0-4.59 0-11.28-.09-19.77-.05-17-.11-41.2-.19-70.18l.36.36h-92.8l.41-.41c0 35.61 0 68.92-.06 97l-.35-.36 67.2.18 18.88.1h6.29c.15-.015.3-.015.45 0h-6.59l-18.79.09-67.43.18h-.36V194c0-28.1 0-61.41-.05-97v-.41h93.58V97c-.07 29.08-.14 53.36-.18 70.41 0 8.46-.07 15.12-.09 19.69 0 2.24 0 4-.05 5.17v1.32a1.985 1.985 0 01-.14.41z" fill="#E0E0E0"/><path d="M634 126.6a34.894 34.894 0 00-35.06-4.4s-1.74 23-1.61 33.08c.13 10.08 10.16 11.6 10.16 11.6v10.87l24.4.92 3.64-50.92-1.53-1.15z" fill="#F5F5F5"/><path d="M607.46 166.74a23.403 23.403 0 0013.09-3.74s-3.09 7.22-13.11 6.32l.02-2.58z" fill="#E0E0E0"/><path d="M634.24 138.14c.17-.07 6.9-2 6.68 4.83-.22 6.83-7.07 5.22-7.07 5 0-.22.39-9.83.39-9.83z" fill="#F5F5F5"/><path d="M636 145.46s.11.09.31.19c.289.116.611.116.9 0a3.004 3.004 0 001.45-2.61 3.936 3.936 0 00-.28-1.72 1.381 1.381 0 00-.87-1 .608.608 0 00-.72.3c-.1.19-.06.33-.09.34-.03.01-.15-.12-.08-.4a.802.802 0 01.28-.42.88.88 0 01.67-.15 1.653 1.653 0 011.21 1.1c.278.603.402 1.267.36 1.93-.09 1.38-.84 2.65-1.84 2.9a1.272 1.272 0 01-1.09-.21c-.21-.08-.21-.23-.21-.25zM602.22 137.64a1.45 1.45 0 001.39 1.45 1.368 1.368 0 001.47-1.3 1.429 1.429 0 00-1.38-1.44 1.374 1.374 0 00-1.343.764c-.08.164-.127.343-.137.526z" fill="#E0E0E0"/><path d="M600.83 136.32c.18.18 1.27-.62 2.81-.62s2.67.78 2.84.59c.17-.19-.1-.42-.59-.78a3.996 3.996 0 00-2.28-.7 3.798 3.798 0 00-2.23.72c-.47.36-.64.7-.55.79zM617.39 138.29a1.444 1.444 0 001.38 1.45 1.377 1.377 0 001.48-1.3 1.438 1.438 0 00-1.38-1.44 1.36 1.36 0 00-1.48 1.29zM616 136.6c.18.19 1.27-.61 2.81-.61s2.68.78 2.84.59c.16-.19-.09-.42-.59-.78a3.848 3.848 0 00-2.27-.7 3.785 3.785 0 00-2.24.72c-.48.36-.64.7-.55.78zM610.4 148a10.978 10.978 0 00-2.51-.45c-.39 0-.77-.12-.83-.39a2 2 0 01.26-1.16c.367-.96.757-1.96 1.17-3 1.61-4.27 2.78-7.78 2.61-7.85-.17-.07-1.62 3.35-3.24 7.62-.39 1.05-.76 2.06-1.12 3a2.319 2.319 0 00-.2 1.54 1 1 0 00.65.58c.218.061.444.091.67.09.842.12 1.696.127 2.54.02zM615.6 130.56c.15.42 1.69.22 3.5.44s3.27.71 3.51.33c.11-.18-.14-.57-.73-1a6.002 6.002 0 00-2.61-.91 5.81 5.81 0 00-2.74.32c-.66.26-1 .62-.93.82zM601.4 131.85c.27.35 1.33 0 2.61 0 1.28 0 2.36.24 2.61-.13.11-.18-.06-.53-.53-.86a3.619 3.619 0 00-2.13-.57 3.523 3.523 0 00-2.08.7c-.45.33-.6.69-.48.86z" fill="#E0E0E0"/><path d="M594 115.86a3.703 3.703 0 011.37-3.31 2.637 2.637 0 013.41.25 3.061 3.061 0 012.63-3.72c1.64-.1 3 1.14 4.62 1.57a7.44 7.44 0 004.68-.54c1.49-.6 2.88-1.43 4.38-2a12.837 12.837 0 0116.42 7.53 5.698 5.698 0 016 2.29 9.367 9.367 0 011.44 6.59 21.378 21.378 0 01-1.15 4.5v.39c-.11 5.52-.73 12-3.08 12-4.11.07-3.13-7.67-3.13-7.67-5-1.94-3.16-9.49-4.42-10.63-1.26-1.14-3.9-3.81-14.44 1.58-4.1 2.09-9.54 2-12.51 1.35h-.27.05-.08a9.375 9.375 0 01-2.71-1.14 5.463 5.463 0 01-2.23-2.48 2.934 2.934 0 01.58-3.14 6.487 6.487 0 01-1.56-3.42zM610.41 155.51a4.597 4.597 0 001.77-.21 2.553 2.553 0 001.33-1.22 2.632 2.632 0 000-2.16 2.666 2.666 0 00-.28-.5c-.14-.14-.11-.13-.25-.11-.14.02-.36.14-.53.21l-.55.22c-.71.29-1.35.54-1.89.74a5.593 5.593 0 01-1.8.54 5.889 5.889 0 011.64-.92c.52-.26 1.14-.55 1.84-.86l.53-.24c.198-.096.402-.179.61-.25a.7.7 0 01.49 0c.14.064.263.16.36.28a3.003 3.003 0 01.28 3.28 2.841 2.841 0 01-1.68 1.36 2.782 2.782 0 01-1.44.06c-.29-.07-.44-.18-.43-.22z" fill="#E0E0E0"/><path d="M459.13 329.84a16.4 16.4 0 0116-13.77c34.54-.46 122.48-1.25 127.2 2.49 5.88 4.67 9 7.06 8.49 14.47-.43 6.8-7.84 124.29-7.84 124.29H438.37l20.76-127.48z" fill="#455A64"/><path d="M584.2 457.38a2.418 2.418 0 01-.05-.35c0-.25 0-.59-.08-1-.07-.92-.17-2.24-.29-3.91-.12-1.67-.26-3.79-.34-6.21-.08-2.42-.24-5.18-.24-8.23 0-1.53 0-3.13-.05-4.79-.05-1.66 0-3.4.06-5.19 0-3.59.21-7.42.38-11.45.46-8.06 1.22-16.9 2.45-26.13 1.23-9.23 2.91-18 4.62-25.85.91-3.93 1.75-7.67 2.69-11.14.46-1.73.87-3.41 1.33-5 .46-1.59.91-3.13 1.33-4.6.82-2.94 1.71-5.55 2.43-7.87.72-2.32 1.41-4.28 2-5.89.59-1.61 1-2.82 1.32-3.7l.36-1c.08-.21.13-.32.13-.32-.014.116-.041.23-.08.34l-.31 1c-.29.89-.7 2.14-1.23 3.74s-1.21 3.59-1.9 5.91c-.69 2.32-1.56 4.94-2.35 7.88-.42 1.47-.85 3-1.3 4.61-.45 1.61-.85 3.29-1.3 5-.92 3.46-1.74 7.21-2.64 11.13a359.3 359.3 0 00-4.57 25.82c-1.28 9.22-2 18-2.49 26.08-.18 4-.4 7.85-.43 11.44 0 1.79-.09 3.52-.09 5.18v4.78c0 3.05.11 5.81.17 8.23.06 2.42.15 4.5.24 6.2.09 1.7.15 3 .19 3.93v1c.025.118.038.239.04.36zM491.65 375.21s.08 0 .25-.1c.252-.04.508-.04.76 0a3.42 3.42 0 012.41 1.42 3.927 3.927 0 01.24 4.1 5.26 5.26 0 01-1.6 1.93 4.996 4.996 0 01-2.55.89 4.142 4.142 0 01-2.63-.69 3.287 3.287 0 01-1.36-2.14 4.476 4.476 0 011.26-3.94c1.85-1.58 3.48-1.63 3.45-1.48-.03.15-.09 0-.25 0-.24.059-.474.139-.7.24-.83.34-1.59.832-2.24 1.45a4.16 4.16 0 00-1.05 3.59 2.795 2.795 0 001.18 1.81c.679.45 1.489.657 2.3.59a4.495 4.495 0 002.29-.79 4.551 4.551 0 001.47-1.72 3.576 3.576 0 00-.11-3.68 3.409 3.409 0 00-2.13-1.43 7.987 7.987 0 00-.99-.05zM517.46 360.28c0 .11-1.7-.2-4.42.05a20.255 20.255 0 00-16.6 11.67c-1.17 2.47-1.45 4.16-1.56 4.14.012-.403.076-.803.19-1.19a16.958 16.958 0 011-3.1A19.698 19.698 0 01513 360a17.689 17.689 0 013.27.09c.403.011.804.075 1.19.19zM469.72 390.85c.091-.3.222-.586.39-.85a12.78 12.78 0 011.45-2.08 15.429 15.429 0 0115.18-5.18 13.68 13.68 0 012.42.77c.294.107.573.251.83.43 0 .1-1.24-.47-3.32-.84a16.075 16.075 0 00-14.84 5.06c-1.41 1.56-2.02 2.74-2.11 2.69zM501.57 394.94a6.376 6.376 0 01-1.69-1.22 18.875 18.875 0 01-3.27-3.85 18.422 18.422 0 01-2.13-4.57 5.998 5.998 0 01-.41-2.05 36.929 36.929 0 003 6.34 38.787 38.787 0 004.5 5.35zM547.23 376.6s.08-.05.25-.1c.252-.04.508-.04.76 0a3.473 3.473 0 012.41 1.42 3.994 3.994 0 01.25 4.1 5.287 5.287 0 01-1.61 1.93 4.996 4.996 0 01-2.55.89 4.148 4.148 0 01-2.63-.69 3.327 3.327 0 01-1.36-2.14A4.47 4.47 0 01544 378c1.85-1.57 3.48-1.63 3.45-1.48-.03.15-.09 0-.25.05-.24.059-.474.139-.7.24-.83.34-1.59.832-2.24 1.45a4.149 4.149 0 00-.924 1.677 4.153 4.153 0 00-.076 1.913 2.836 2.836 0 001.18 1.81 3.628 3.628 0 002.3.59 4.492 4.492 0 002.29-.79 4.551 4.551 0 001.47-1.72 3.58 3.58 0 00-.11-3.68 3.409 3.409 0 00-2.13-1.43 8.045 8.045 0 00-1.03-.03zM573 361.67c0 .11-1.7-.2-4.42.05A20.256 20.256 0 00552 373.35c-1.17 2.47-1.45 4.16-1.56 4.14.012-.403.076-.803.19-1.19a17.035 17.035 0 011-3.1 19.704 19.704 0 0116.91-11.85 17.689 17.689 0 013.27.09c.405.024.805.101 1.19.23zM525.3 392.24c.091-.3.222-.586.39-.85.417-.738.902-1.434 1.45-2.08a15.486 15.486 0 0115.18-5.18c.832.183 1.645.44 2.43.77.295.103.571.251.82.44 0 .09-1.24-.48-3.32-.85a16.06 16.06 0 00-14.83 5.06c-1.42 1.56-2.03 2.74-2.12 2.69zM557.15 396.33a6.399 6.399 0 01-1.69-1.22 19.204 19.204 0 01-3.27-3.85 18.458 18.458 0 01-2.13-4.57 6.012 6.012 0 01-.41-2c.798 2.2 1.802 4.32 3 6.33a38.79 38.79 0 004.5 5.31z" fill="#263238"/><path d="M616.61 293.43c-44.3-43.77-99.46-54.22-99.46-54.22-32.8 19.56-54.93 52.39-71.78 91.79 28.26 26.15 64.6 51.22 95.7 53.52 49.18-12.43 75.54-91.09 75.54-91.09z" fill="#7ECB20"/><path opacity=".4" d="M616.61 293.43c-44.3-43.77-99.46-54.22-99.46-54.22-32.8 19.56-54.93 52.39-71.78 91.79 28.26 26.15 64.6 51.22 95.7 53.52 49.18-12.43 75.54-91.09 75.54-91.09z" fill="#000"/><path d="M600.82 328.18a1.61 1.61 0 01-.11-.3l-.28-.9c-.25-.82-.6-2-1.06-3.52l-3.89-13.23.19.11-21.73 7 .14-.13a.62.62 0 01-.06.11c-.06.08-.21.12-.26.08a.28.28 0 01-.14-.14.855.855 0 010-.16V313.75v-3.65-7.62c0-2.62-.11-5.28-.26-8a71.792 71.792 0 00-.86-8.29l.31.2-19.87 4.61-12 2.79-.26.06v-.26c-1.78-9.34-3.48-18.21-5-26.39l.3.19a178.121 178.121 0 01-31.56 5.51h-.16v-.16c-.83-6.8-1.49-12.2-1.94-15.93-.22-1.83-.38-3.26-.5-4.24-.05-.47-.08-.83-.11-1.1a3.805 3.805 0 010-.37c.04.116.064.237.07.36 0 .27.1.63.17 1.09.13 1 .33 2.41.58 4.24.49 3.72 1.2 9.12 2.09 15.91l-.18-.15a181.349 181.349 0 0031.28-5.55l.25-.07v.25c1.57 8.18 3.28 17.05 5.07 26.38l-.31-.2 12-2.8 19.76-4.58.26-.06v.26c.452 2.763.736 5.552.85 8.35.15 2.73.21 5.41.25 8 .04 2.59 0 5.16 0 7.63V317.14s.05 0 0 0-.1 0-.13.05l-.13-.08-.11-.05.25-.08 21.85-6.98.15-.05v.16l3.75 13.27 1 3.54.24.91c.052.11.086.229.1.35z" fill="#7ECB20"/><path d="M592.35 342.11a1.204 1.204 0 01-.1-.23c-.07-.18-.16-.41-.27-.71l-1-2.76c-.86-2.44-2.1-6-3.68-10.51l.17.09-25.9 6.92-.24.06v-.24c-.62-4.77-1.31-9.88-2.07-15.27-.76-5.39-1.57-11.07-2.61-16.9l.31.2-19 4.41-12.84 3-.26.06v-.27c-1.78-9.33-3.47-18.2-5-26.38l.3.18a178.306 178.306 0 01-31.56 5.52h-.16v-.15c-.83-6.8-1.49-12.21-1.94-15.93-.21-1.84-.38-3.26-.49-4.25-.05-.46-.09-.83-.12-1.09a2.192 2.192 0 010-.38c.033.121.057.245.07.37 0 .27.09.63.16 1.09.13 1 .33 2.4.58 4.23.49 3.73 1.2 9.12 2.09 15.91l-.18-.14a181.327 181.327 0 0031.39-5.65l.25-.07v.25c1.57 8.18 3.28 17 5.08 26.38l-.31-.21 12.83-3 19-4.39.26-.06v.26c1 5.85 1.83 11.53 2.59 16.92.76 5.39 1.42 10.51 2 15.28l-.27-.18 25.94-6.77h.12l.05.12c1.52 4.53 2.72 8.1 3.55 10.55.39 1.21.7 2.14.92 2.79.09.3.17.53.22.71l.12.24z" fill="#FAFAFA"/><path d="M575 363.67v-.83c0-.54.11-1.37.2-2.41.19-2.14.46-5.25.81-9.23l.17.14-26.86 8.92-.23.08v-.24c-2.12-11-4.62-24-7.34-38.09l.31.2-16.43 3.79-15.37 3.56-.26.06-.05-.26c-1.78-9.34-3.47-18.21-5-26.38l.29.18a178.596 178.596 0 01-31.56 5.52h-.16v-.16c-.83-6.8-1.49-12.21-1.94-15.93-.21-1.84-.38-3.26-.49-4.24-.05-.47-.09-.83-.12-1.09a2.192 2.192 0 010-.38s0 .13.07.37.09.62.16 1.09c.13 1 .33 2.4.58 4.23.49 3.72 1.19 9.11 2.09 15.91l-.18-.14a181.52 181.52 0 0031.46-5.64l.25-.07.05.25c1.57 8.17 3.28 17 5.08 26.37l-.31-.2 15.37-3.57 16.41-3.77.26-.06v.27c2.68 14.09 5.16 27.1 7.25 38.1l-.27-.16 26.91-8.77.18-.06v.2c-.4 4-.71 7.07-.93 9.21-.11 1-.2 1.84-.26 2.41-.06.57-.14.82-.14.82z" fill="#7ECB20"/><path d="M539.25 384.36l-.06-.19-.16-.57c-.13-.53-.32-1.27-.57-2.21-.48-2-1.18-4.82-2.07-8.42-.89-3.6-1.91-8-3.1-13-1.19-5-2.48-10.69-3.68-16.91l.28.19-31.79 7.4-.27.07-.05-.27c-.16-.87-.34-1.81-.52-2.75-1.58-8.25-3.1-16.2-4.52-23.63l.31.19a177.206 177.206 0 01-31.56 5.52h-.18v-.18c-.81-6.69-1.47-12.1-1.92-15.85-.22-1.85-.38-3.29-.5-4.29-.05-.47-.09-.84-.11-1.12a1.856 1.856 0 010-.38c.041.123.068.251.08.38l.16 1.1c.14 1 .34 2.44.59 4.28.5 3.75 1.21 9.15 2.09 15.84l-.19-.16a181.236 181.236 0 0031.46-5.64l.25-.07.06.26c1.42 7.44 2.95 15.38 4.54 23.63.18.94.36 1.88.52 2.75l-.31-.2 31.81-7.36.23-.05.05.24c1.17 6.2 2.48 11.86 3.6 16.9 1.12 5.04 2.15 9.43 3 13.07.85 3.64 1.49 6.46 1.94 8.44.22 1 .38 1.7.5 2.24l.12.57c-.03.11-.02.18-.03.18z" fill="#FAFAFA"/><path d="M522.36 380.78a8.439 8.439 0 01-.37-1.38l-.86-3.86c-.7-3.27-1.66-7.85-2.71-13l.31.2-3 .7c-5.85 1.36-11.16 2.56-15 3.4l-4.56 1c-.555.138-1.12.235-1.69.29a9.785 9.785 0 011.64-.49l4.53-1.13c3.82-.94 9.12-2.2 15-3.56l3-.69.26-.06v.26c1 5.19 1.92 9.78 2.54 13.07.28 1.59.52 2.89.7 3.89.105.447.175.902.21 1.36zM485.48 362.56a8.812 8.812 0 01-.37-1.41c-.22-1-.5-2.32-.83-3.89-.68-3.28-1.58-7.83-2.55-12.86-.05-.31-.11-.61-.17-.9l.33.2c-4.76 1.29-9.08 2.21-12.21 2.77-1.56.29-2.83.49-3.71.61a6.93 6.93 0 01-1.37.14c.436-.149.885-.26 1.34-.33l3.67-.77c3.11-.66 7.4-1.63 12.14-2.92l.27-.07.05.27.18.9c1 5 1.8 9.59 2.39 12.89.27 1.58.49 2.9.67 3.92.102.477.159.962.17 1.45zM448.37 333.75a19.647 19.647 0 01-.8-6.34c.386 1.005.609 2.065.66 3.14a9.746 9.746 0 01.14 3.2z" fill="#7ECB20"/><path d="M608.29 313.57a.83.83 0 01-.06-.25c0-.18-.09-.42-.15-.73-.12-.67-.29-1.62-.52-2.85-.45-2.52-1.09-6.18-1.91-10.8l.17.12-15.11 2.42h-.2v-.19c-1.52-9.09-3.34-20-5.35-32l.3.2-20.62 4.8-10.51 2.43-.25.06-.06-.25c-2.23-9.08-4.31-17.68-5.87-25.61l.26.19-30.69 4.71h-.15v-.16c-.59-4.92-1.06-8.81-1.39-11.5-.14-1.32-.26-2.34-.34-3.06 0-.32-.06-.58-.08-.78a.816.816 0 010-.27v.26l.12.78.42 3.05c.36 2.69.88 6.57 1.53 11.48l-.17-.13 30.66-4.88h.22l.05.22c1.58 7.91 3.67 16.51 5.91 25.58l-.31-.19 10.51-2.44 20.62-4.78.26-.06v.26c2 12 3.75 23 5.24 32l-.22-.16 15.12-2.32h.15v.14c.76 4.63 1.36 8.3 1.77 10.82.2 1.24.35 2.19.45 2.87.05.31.08.55.11.74a.927.927 0 01.09.28z" fill="#FAFAFA"/><path d="M611.67 292.68a1.208 1.208 0 01-.28.11l-.83.25c-.72.24-1.81.48-3.17 1a65.456 65.456 0 00-11.12 5 77.748 77.748 0 00-14.58 10.61 100.572 100.572 0 00-14.49 16.67 149.144 149.144 0 00-11.09 19.16c-3 6.11-5.42 11.76-7.38 16.53-1.96 4.77-3.48 8.66-4.54 11.34-.53 1.31-.94 2.35-1.24 3.09-.13.32-.24.59-.33.79a1.524 1.524 0 01-.13.27c.016-.099.043-.197.08-.29.07-.21.17-.48.29-.81.267-.747.647-1.787 1.14-3.12 1-2.71 2.48-6.61 4.39-11.41 1.91-4.8 4.3-10.46 7.29-16.61a146.983 146.983 0 0111.1-19.26 98.847 98.847 0 0114.59-16.73 76.23 76.23 0 0114.72-10.57 60.838 60.838 0 0111.24-4.82c1.37-.47 2.48-.68 3.21-.89l.84-.2c.094-.045.191-.082.29-.11z" fill="#263238"/><path d="M294.22 204l.14 2.69a2.313 2.313 0 012.467-.477 2.312 2.312 0 011.443 2.057 2.305 2.305 0 01-1.209 2.21 2.312 2.312 0 01-2.511-.21l.15 2.7a2.255 2.255 0 011.47-.64 2.34 2.34 0 012.465 2.215 2.346 2.346 0 01-2.215 2.465 2.319 2.319 0 01-1.53-.48l.14 2.7a2.31 2.31 0 011.47-.64 2.34 2.34 0 01.25 4.67 2.296 2.296 0 01-1.53-.47l.15 2.7a2.255 2.255 0 011.47-.64 2.34 2.34 0 01.25 4.67 2.264 2.264 0 01-1.53-.48l.14 2.71a2.343 2.343 0 012.478-.481 2.333 2.333 0 011.473 2.049 2.336 2.336 0 01-1.246 2.196 2.344 2.344 0 01-2.515-.214l.15 2.71a2.255 2.255 0 011.47-.64 2.34 2.34 0 01.25 4.67 2.264 2.264 0 01-1.53-.48l.09 1.68 72.09-1.73-3.65-42-70.54 4.49z" fill="#EBEBEB"/><path d="M292.62 202.22l.15 2.7a2.28 2.28 0 011.47-.64 2.336 2.336 0 012.446 1.902 2.339 2.339 0 01-3.726 2.288l.14 2.7a2.307 2.307 0 013.493.338c.256.365.401.796.417 1.242a2.305 2.305 0 01-1.21 2.21 2.307 2.307 0 01-2.51-.21l.15 2.7a2.28 2.28 0 011.47-.64 2.336 2.336 0 011.974.89 2.342 2.342 0 01.399 2.128 2.333 2.333 0 01-2.63 1.625 2.335 2.335 0 01-1.023-.443l.14 2.7a2.31 2.31 0 011.47-.64 2.341 2.341 0 011.807 3.87 2.34 2.34 0 01-1.557.8 2.296 2.296 0 01-1.53-.47l.15 2.7a2.28 2.28 0 011.47-.64 2.34 2.34 0 01.25 4.67 2.283 2.283 0 01-1.53-.48l.14 2.71a2.344 2.344 0 011.168-.604 2.345 2.345 0 012.347.932 2.34 2.34 0 01-3.325 3.222l.09 1.68 72.08-3.85-2.1-39.23-72.08 3.84z" fill="#F5F5F5"/><path d="M365.11 206.12c0 .15-16.12 1.12-36 2.19-19.88 1.07-36 1.81-36 1.67 0-.14 16.12-1.13 36-2.19s36-1.79 36-1.67zM365.45 212.4c0 .14-16.12 1.12-36 2.19-19.88 1.07-36.05 1.81-36.05 1.66 0-.15 16.11-1.12 36-2.18s36.04-1.82 36.05-1.67zM365.79 218.67c0 .15-16.13 1.13-36 2.19s-36 1.81-36.05 1.67c-.05-.14 16.12-1.12 36-2.19 19.88-1.07 36.04-1.81 36.05-1.67zM366.12 225c0 .14-16.12 1.12-36 2.19-19.88 1.07-36.05 1.81-36.05 1.67 0-.14 16.12-1.13 36-2.19s36.04-1.86 36.05-1.67zM366.46 231.23c0 .14-16.12 1.12-36 2.18s-36.05 1.82-36.06 1.67c-.01-.15 16.12-1.12 36-2.19 19.88-1.07 36.05-1.81 36.06-1.66z" fill="#E0E0E0"/><path d="M302.881 201.677l-.499.027 2.097 39.224.499-.027-2.097-39.224z" fill="#7ECB20"/><path d="M311.27 240.56c-.14 0-.73-8.77-1.31-19.6-.58-10.83-.93-19.62-.79-19.63.14-.01.73 8.77 1.31 19.6.58 10.83.94 19.62.79 19.63zM298.44 241.24c-.14 0-.73-8.76-1.31-19.59-.58-10.83-.93-19.65-.79-19.65s.73 8.76 1.31 19.6c.58 10.84.94 19.64.79 19.64zM318.3 240.18c-.14 0-.73-8.77-1.31-19.6-.58-10.83-.93-19.58-.79-19.58s.73 8.77 1.31 19.61c.58 10.84.93 19.56.79 19.57zM325.33 239.81c-.15 0-.73-8.77-1.31-19.6-.58-10.83-.93-19.62-.79-19.63.14-.01.73 8.76 1.31 19.6.58 10.84.93 19.62.79 19.63zM332.35 239.43c-.14 0-.72-8.77-1.3-19.6-.58-10.83-.94-19.62-.79-19.63.15-.01.73 8.77 1.31 19.6.58 10.83.93 19.62.78 19.63zM339.38 239.05c-.14 0-.73-8.76-1.31-19.6-.58-10.84-.93-19.62-.79-19.62s.73 8.76 1.31 19.6c.58 10.84.94 19.62.79 19.62zM346.41 238.68c-.14 0-.73-8.77-1.31-19.6-.58-10.83-.93-19.62-.79-19.63.14-.01.73 8.77 1.31 19.6.58 10.83.93 19.62.79 19.63zM353.44 238.3c-.15 0-.73-8.77-1.31-19.6-.58-10.83-.94-19.62-.79-19.63.15-.01.73 8.77 1.31 19.61.58 10.84.93 19.61.79 19.62zM360.46 237.93c-.14 0-.73-8.77-1.31-19.6-.58-10.83-.93-19.62-.79-19.63.14-.01.73 8.76 1.31 19.6.58 10.84.94 19.62.79 19.63z" fill="#E0E0E0"/><path d="M359.59 214.17c-.165.053-.337.08-.51.08l-1.48.13-5.41.36c-4.58.29-10.91.64-17.89 1s-13.33.61-17.91.75-7.43.16-7.42 0l25.3-1.27 17.9-.83 5.42-.21h1.48c.172-.032.347-.035.52-.01zM361.05 221.34c0 .14-11.63.79-26 1.45-14.37.66-26 1.08-26 .93 0-.15 11.62-.79 26-1.45 14.38-.66 25.95-1.08 26-.93zM361.82 227.61c0 .15-11.62.8-26 1.46-14.38.66-26 1.07-26 .93s11.62-.8 26-1.45c14.38-.65 25.99-1.08 26-.94z" fill="#263238"/><path d="M300.69 206.33a6.3 6.3 0 002.31 4 4.117 4.117 0 003.878.427 4.129 4.129 0 002.496-3 4.122 4.122 0 00-4.864-4.857" fill="#E0E0E0"/><path d="M300.52 206.32a3.278 3.278 0 004.086 3.004 3.279 3.279 0 002.148-4.594 3.28 3.28 0 00-6.234 1.59z" fill="#455A64"/><path d="M298.63 205.11a2.001 2.001 0 103.894-.924 2.001 2.001 0 00-3.894.924z" fill="#455A64"/><path d="M300.47 206.93c0-.08.31-.06.71-.21a1.909 1.909 0 001.12-1.08 1.993 1.993 0 00-.15-1.57c-.2-.39-.43-.57-.39-.64.04-.07.36 0 .69.43a2.086 2.086 0 01.34 1.95 1.997 1.997 0 01-1.52 1.27c-.53.08-.82-.08-.8-.15z" fill="#263238"/><path d="M302.12 203.8c.07-.13.56 0 1.11-.12s.93-.47 1-.38c.07.09-.15.7-.93.89-.78.19-1.3-.29-1.18-.39zM302.62 208.78c-.14 0-.28-.61-.8-1.09-.52-.48-1.13-.59-1.13-.73s.79-.3 1.49.35c.7.65.58 1.5.44 1.47z" fill="#263238"/><path d="M356.09 204a6.328 6.328 0 002.31 4 4.124 4.124 0 006.373-2.573 4.123 4.123 0 00-1.126-3.736 4.126 4.126 0 00-3.737-1.121" fill="#E0E0E0"/><path d="M362.43 203.13a3.166 3.166 0 01-1.8 3.026 3.172 3.172 0 01-4.437-2.076 3.17 3.17 0 116.237-.95z" fill="#7ECB20"/><path d="M364.11 201.77a1.905 1.905 0 01-1.08 1.812 1.896 1.896 0 01-2.089-.303 1.9 1.9 0 011.906-3.206 1.886 1.886 0 011.263 1.697z" fill="#7ECB20"/><path d="M362.54 203.71s-.24.25-.75.23a1.905 1.905 0 01-1.6-1.06 2.002 2.002 0 01.12-1.91c.28-.43.6-.54.63-.49.03.05-.15.27-.3.66a1.92 1.92 0 000 1.51 1.809 1.809 0 001.18.93c.42.1.7.05.72.13z" fill="#263238"/><path d="M360.63 200.87c.11.1-.36.6-1.14.51-.78-.09-1.11-.69-1-.77.11-.08.51.2 1.05.26s1.01-.12 1.09 0zM360.66 205.71c-.14 0-.33-.75.27-1.46.6-.71 1.42-.63 1.4-.49-.02.14-.57.31-1 .83-.43.52-.52 1.11-.67 1.12z" fill="#263238"/><path d="M239.72 297.38l58.92 7.51-.79-21.57-58.13 14.06z" fill="#E0E0E0"/><path d="M297.814 283.754l-56.563-4.72-1.567 18.774 56.563 4.72 1.567-18.774z" fill="#455A64"/><path d="M289.86 289.39c0 .14-9.5-.53-21.19-1.51-11.69-.98-21.15-1.88-21.14-2 .01-.12 9.5.53 21.19 1.5 11.69.97 21.15 1.87 21.14 2.01zM289.75 294.29c0 .14-9.5-.53-21.19-1.51-11.69-.98-21.15-1.88-21.14-2 .01-.12 9.49.53 21.19 1.5 11.7.97 21.15 1.87 21.14 2.01z" fill="#263238"/><path d="M258.01 277.75l21.92 1.82-1.15.98 1.5 1.31-1.79.82 1.6 1.42-22.97-1.92 1.43-1.21-.71-1.3 1.23-.63-1.06-1.29z" fill="#EBEBEB"/><path d="M206.31 243.77a2.55 2.55 0 11-4.38 0h-3a2.55 2.55 0 11-4.38 0h-2.95c.236.389.361.835.36 1.29.003.393-.086.782-.259 1.135a2.56 2.56 0 01-1.797 1.383 2.545 2.545 0 01-2.188-.596 2.556 2.556 0 01-.848-2.102 2.55 2.55 0 01.352-1.11h-3c.236.389.361.835.36 1.29a2.55 2.55 0 11-5.09 0 2.476 2.476 0 01.36-1.29h-3c.236.389.361.835.36 1.29a2.55 2.55 0 11-5.09 0 2.476 2.476 0 01.36-1.29h-3a2.55 2.55 0 11-4.38 0h-1.85v52.62l46 2.53-2.2-55.15h-.74z" fill="#E0E0E0"/><path d="M205.64 242.33a2.55 2.55 0 11-4.38 0h-2.95c.231.391.356.836.36 1.29.003.393-.086.782-.259 1.135a2.56 2.56 0 01-2.961 1.342 2.554 2.554 0 01-1.872-2.657c.03-.392.151-.772.352-1.11h-3c.236.389.361.835.36 1.29.003.393-.086.782-.259 1.135a2.56 2.56 0 01-2.961 1.342 2.554 2.554 0 01-1.872-2.657c.03-.392.151-.772.352-1.11h-2.95c.236.389.361.835.36 1.29a2.55 2.55 0 11-5.09 0 2.476 2.476 0 01.36-1.29h-2.95a2.545 2.545 0 01-1.52 3.767 2.558 2.558 0 01-2.225-.44 2.55 2.55 0 01-.635-3.327H169a2.55 2.55 0 11-4.38 0h-1.85V295h43.84v-52.67h-.97z" fill="#F5F5F5"/><path d="M160.1 297.38c-.15 0-.39-12.75-.55-28.48-.16-15.73-.18-28.49 0-28.49s.39 12.75.55 28.48c.16 15.73.14 28.49 0 28.49zM167.14 297.31c-.15 0-.4-12.75-.56-28.48-.16-15.73-.17-28.49 0-28.49s.39 12.75.55 28.48c.16 15.73.15 28.49.01 28.49zM170.63 297.31c-.14 0-.39-12.75-.55-28.48-.16-15.73-.18-28.49 0-28.49s.39 12.75.55 28.48c.16 15.73.14 28.49 0 28.49zM177.74 297.31c-.14 0-.39-12.75-.55-28.48-.16-15.73-.17-28.49 0-28.49s.39 12.75.55 28.48c.16 15.73.15 28.49 0 28.49zM184.85 297.31c-.14 0-.39-12.75-.55-28.48-.16-15.73-.17-28.49 0-28.49s.39 12.75.55 28.48c.16 15.73.15 28.49 0 28.49zM192 297.31c-.14 0-.39-12.75-.55-28.48-.16-15.73-.17-28.49 0-28.49s.39 12.75.55 28.48c.16 15.73.11 28.49 0 28.49zM198.71 297.31c-.14 0-.39-12.75-.55-28.48-.16-15.73-.17-28.49 0-28.49s.39 12.75.55 28.48c.16 15.73.15 28.49 0 28.49zM205.46 297.31c-.14 0-.39-12.75-.55-28.48-.16-15.73-.18-28.49 0-28.49s.39 12.75.55 28.48c.16 15.73.14 28.49 0 28.49zM174.17 297.24c-.14 0-.39-12.76-.55-28.49-.16-15.73-.17-28.48 0-28.48s.39 12.74.55 28.48c.16 15.74.15 28.48 0 28.49zM181.21 297.16c-.14 0-.39-12.75-.55-28.48-.16-15.73-.18-28.48 0-28.49.18-.01.39 12.75.55 28.49.16 15.74.14 28.48 0 28.48zM188.25 297.09c-.15 0-.4-12.75-.56-28.48-.16-15.73-.17-28.49 0-28.49s.39 12.75.55 28.49c.16 15.74.15 28.48.01 28.48zM195.28 297c-.14 0-.39-12.75-.55-28.48-.16-15.73-.17-28.49 0-28.49s.39 12.75.55 28.48c.16 15.73.15 28.49 0 28.49zM202 297.38c-.15 0-.39-12.75-.55-28.48-.16-15.73-.18-28.49 0-28.49s.39 12.75.55 28.48c.16 15.73.17 28.49 0 28.49zM209.36 296.88c-.15 0-.39-12.76-.56-28.49-.17-15.73-.17-28.48 0-28.48s.39 12.74.56 28.48c.17 15.74.14 28.48 0 28.49z" fill="#E0E0E0"/><path d="M216.91 290.2c0 .14-12.76.39-28.48.54-15.72.15-28.49.17-28.49 0s12.75-.39 28.48-.55c15.73-.16 28.48-.13 28.49.01zM217.2 293.8c0 .14-12.75.39-28.48.54-15.73.15-28.49.17-28.49 0s12.75-.39 28.49-.55c15.74-.16 28.48-.14 28.48.01zM216.84 283.16c0 .15-12.76.39-28.48.55-15.72.16-28.49.17-28.49 0s12.75-.39 28.48-.54c15.73-.15 28.48-.17 28.49-.01zM216.77 276.13c0 .14-12.76.38-28.49.54-15.73.16-28.48.17-28.48 0s12.75-.38 28.48-.54c15.73-.16 28.48-.13 28.49 0zM216.7 269.09c0 .14-12.76.39-28.49.54-15.73.15-28.48.17-28.48 0s12.74-.39 28.48-.55c15.74-.16 28.48-.14 28.49.01zM216.63 262.05c0 .15-12.76.39-28.49.55-15.73.16-28.48.16-28.48 0s12.74-.39 28.48-.54c15.74-.15 28.48-.15 28.49-.01zM216.55 255c0 .15-12.75.39-28.48.55-15.73.16-28.48.17-28.48 0s12.74-.38 28.48-.54c15.74-.16 28.48-.14 28.48-.01zM216.48 248c0 .14-12.75.39-28.48.54-15.73.15-28.48.17-28.49 0-.01-.17 12.75-.39 28.49-.55 15.74-.16 28.48-.16 28.48.01zM216.48 245.16c0 .14-12.75.39-28.48.54-15.73.15-28.48.17-28.49 0-.01-.17 12.75-.39 28.49-.55 15.74-.16 28.48-.15 28.48.01zM216.48 251.57c0 .15-12.75.39-28.48.55-15.73.16-28.48.17-28.49 0-.01-.17 12.75-.39 28.49-.54 15.74-.15 28.48-.15 28.48-.01zM216.48 258.55c0 .15-12.75.39-28.48.55-15.73.16-28.48.17-28.49 0-.01-.17 12.75-.38 28.49-.54 15.74-.16 28.48-.15 28.48-.01zM216.48 265.53c0 .15-12.75.39-28.48.55-15.73.16-28.48.17-28.49 0-.01-.17 12.75-.38 28.49-.54 15.74-.16 28.48-.15 28.48-.01zM216.48 272.52c0 .14-12.75.38-28.48.54-15.73.16-28.48.17-28.49 0-.01-.17 12.75-.38 28.49-.54 15.74-.16 28.48-.15 28.48 0zM216.48 279.5c0 .14-12.75.38-28.48.54-15.73.16-28.48.17-28.49 0-.01-.17 12.75-.39 28.49-.55 15.74-.16 28.48-.14 28.48.01zM216.48 286.48c0 .14-12.75.38-28.48.54-15.73.16-28.48.17-28.49 0-.01-.17 12.75-.39 28.49-.55 15.74-.16 28.48-.14 28.48.01z" fill="#E0E0E0"/><path d="M181.68 250a6.3 6.3 0 002.31 4 4.124 4.124 0 006.374-2.573 4.122 4.122 0 00-4.864-4.857" fill="#E0E0E0"/><path d="M181.6 249.94a3.281 3.281 0 106.552-.351 3.281 3.281 0 00-6.552.351z" fill="#7ECB20"/><path d="M179.72 248.73a2 2 0 103.996-.15 2 2 0 00-3.996.15z" fill="#7ECB20"/><path d="M181.55 250.55c0-.08.31-.05.71-.2a1.915 1.915 0 001.12-1.09 1.99 1.99 0 00-.15-1.57c-.2-.38-.43-.57-.39-.63.04-.06.36 0 .69.42a2.074 2.074 0 01.34 2 1.991 1.991 0 01-.592.836 1.989 1.989 0 01-.928.434c-.52.03-.82-.15-.8-.2z" fill="#263238"/><path d="M183.2 247.42c.07-.13.56 0 1.11-.11s.93-.47 1.05-.39c.12.08-.15.71-.93.89-.78.18-1.32-.28-1.23-.39zM183.7 252.4c-.14 0-.28-.61-.79-1.09-.51-.48-1.14-.59-1.14-.73s.79-.29 1.49.35c.7.64.59 1.5.44 1.47zM201.7 261.13c0 .14-7 .26-15.62.26s-15.63-.12-15.63-.26 7-.26 15.63-.26 15.62.13 15.62.26zM201.7 264.38c0 .14-7 .26-15.62.26s-15.63-.12-15.63-.26 7-.26 15.63-.26 15.62.11 15.62.26zM201.7 267.63c0 .14-7 .26-15.62.26s-15.63-.12-15.63-.26 7-.26 15.63-.26 15.62.11 15.62.26zM201.7 270.87c0 .15-7 .26-15.62.26s-15.63-.11-15.63-.26c0-.15 7-.26 15.63-.26s15.62.12 15.62.26zM201.7 274.12c0 .15-7 .26-15.62.26s-15.63-.11-15.63-.26c0-.15 7-.26 15.63-.26s15.62.14 15.62.26zM201.7 277.37c0 .14-7 .26-15.62.26s-15.63-.12-15.63-.26 7-.26 15.63-.26 15.62.12 15.62.26zM201.7 280.62c0 .14-7 .26-15.62.26s-15.63-.12-15.63-.26 7-.26 15.63-.26 15.62.11 15.62.26zM124.53 430.15a1.057 1.057 0 01-1-.8l-35.59-135.5a1.067 1.067 0 011.175-1.325 1.057 1.057 0 01.703.411c.085.112.146.239.182.374l35.56 135.5a1.056 1.056 0 01-.386 1.119 1.048 1.048 0 01-.374.181.854.854 0 01-.27.04zM115.13 433.5a1.058 1.058 0 01-1-.79L78.55 297.2a1.067 1.067 0 011.175-1.325 1.057 1.057 0 01.703.411c.085.112.147.239.182.374l35.56 135.51a1.056 1.056 0 01-.109.808 1.068 1.068 0 01-.651.492c-.092.02-.186.03-.28.03zM82.82 291.32l-1.71-1.27 91.29-122.86 83.27 15.96-.4 2.09-81.96-15.71-90.49 121.79z" fill="#263238"/><path d="M178.798 171.088L88.992 292.367l1.711 1.268 89.807-121.279-1.712-1.268z" fill="#263238"/><path d="M170.13 172.83a6 6 0 1011.338-3.936 6 6 0 00-11.338 3.936zM251.74 176.28l-1.49-8.68 6.42-.48.47 8.38-5.4.78z" fill="#7ECB20"/><path opacity=".3" d="M251.74 176.28l-1.49-8.68 6.42-.48.47 8.38-5.4.78z" fill="#000"/><path d="M246.48 175.68l-5.94 32.2-15 42.55 84.54-12.19-34.12-37.15-14.25-27.61-15.23 2.2zM76.9 294.92a6.712 6.712 0 008.019 6.581 6.713 6.713 0 005.272-5.272A6.71 6.71 0 1076.9 294.92zM97.76 457.26c0-.45-.07-.89-.07-1.35a26.838 26.838 0 0126.835-26.322 26.84 26.84 0 0126.835 26.322c0 .46-.05.9-.07 1.35H97.76z" fill="#7ECB20"/><path d="M244.12 447.21c-.33.07-1.74 1.5.27 3.77s14.13 8.48 16.36 4.77c2.23-3.71-3.15-6.29-3.15-6.29l-13.48-2.25z" fill="#FFBE9D"/><path d="M257.43 443.21s12.5-1.38 17.6-.73c5.53.71 11.4-2.08 14.88-5.9a20.003 20.003 0 004.39-8.84l8-5.56s.86-18.91-11.75-15.86l-14.73.52s-29 4.8-33.48 8.41c0 0-5.46 5.31-7.05 7.36-.6.78-1.11 8.57 4.43 11.23 0 0-3.27 4.17-.39 6.53l1.35 1s-1.87 4.17-.11 5.36c1.76 1.19 15.67 5.41 19.62 2.66 3.95-2.75-.63-5.92-2.72-6.2" fill="#FFBE9D"/><path d="M241.85 433.1c.547.025 1.091.085 1.63.18 1.05.13 2.57.32 4.46.46.94.06 2 .12 3.08.14 1.08.02 2.29 0 3.56.09a7.324 7.324 0 013.83 1.21 4.232 4.232 0 011.456 1.672c.329.676.472 1.428.414 2.178-.12.78-.518 1.49-1.12 2a5.613 5.613 0 01-1.89 1.05c-1.271.395-2.583.64-3.91.73a35.272 35.272 0 01-6.69-.13c-1.89-.2-3.4-.45-4.44-.63a8.958 8.958 0 01-1.62-.34c.549.007 1.097.054 1.64.14 1.06.12 2.58.31 4.46.46 2.196.192 4.404.192 6.6 0 1.287-.1 2.558-.345 3.79-.73a5.36 5.36 0 001.72-.95 2.8 2.8 0 00.94-1.67 3.757 3.757 0 00-1.65-3.37 7.088 7.088 0 00-3.57-1.15c-1.22-.11-2.42-.07-3.53-.13-1.11-.06-2.16-.11-3.11-.21-1.89-.18-3.4-.42-4.45-.62a7.997 7.997 0 01-1.6-.38z" fill="#EB996E"/><path d="M240.83 424.07c.547.017 1.092.078 1.63.18 1 .14 2.56.34 4.43.5 1.87.16 4.11.29 6.6.29a8.837 8.837 0 013.95.59c.677.339 1.21.91 1.5 1.61.279.712.352 1.488.21 2.24a5.387 5.387 0 01-2.53 3.47 8.678 8.678 0 01-3.8 1.23 37.715 37.715 0 01-6.65-.31l-4.44-.45a9.539 9.539 0 01-1.63-.24 10.689 10.689 0 011.64 0l4.46.29c2.181.237 4.378.3 6.57.19a8.267 8.267 0 003.58-1.19 4.862 4.862 0 002.28-3.12 3.004 3.004 0 00-1.43-3.31 8.379 8.379 0 00-3.71-.56c-2.51 0-4.75-.19-6.63-.4a56.72 56.72 0 01-4.43-.67 9.298 9.298 0 01-1.6-.34z" fill="#EB996E"/><path d="M247.28 425.17a16.292 16.292 0 01-1.13-2.31 14.229 14.229 0 01-1.2-2.27c.1-.1 1 .72 1.66 2 .49.768.725 1.671.67 2.58z" fill="#EB996E"/><path d="M285.52 407.08l-11.82-1.57s-33.4-6.81-33.73-5.93c-.33.88-2 1.19-.74 4.77 1.26 3.58 20.51 6.75 21.37 7.89.86 1.14 1.48 7.77 9 10.82 7.52 3.05 12.26 2 12.26 2" fill="#FFBE9D"/><path d="M281.9 425.08l-.25.07-.77.11c-.998.083-2.002.083-3 0a26.144 26.144 0 01-4.63-.82 25.509 25.509 0 01-5.81-2.26 13.493 13.493 0 01-5.21-5.44 30.483 30.483 0 01-1.6-3.89 3.541 3.541 0 00-.22-.44 1.042 1.042 0 00-.35-.22 10.12 10.12 0 00-1-.35c-.7-.22-1.42-.41-2.16-.6-2.94-.77-6.05-1.51-9.23-2.44-1.59-.47-3.2-1-4.8-1.63-.814-.322-1.6-.71-2.35-1.16a5.691 5.691 0 01-1.08-.85 2.419 2.419 0 01-.41-.61c-.11-.23-.14-.44-.22-.65a4.857 4.857 0 01-.16-2.73c.151-.441.397-.844.72-1.18.129-.139.24-.293.33-.46l.08-.13a.347.347 0 01.19-.12c.073-.007.147-.007.22 0h.35c1.74.11 3.39.4 5 .66 3.27.54 6.41 1.12 9.4 1.69 6 1.13 11.34 2.21 15.85 3.14 1.12.22 2.2.48 3.21.65l2.9.4 4.63.66 2.93.44.76.13.26.06a.816.816 0 01-.27 0l-.76-.07-2.95-.35-4.65-.57-2.91-.37c-1-.16-2.09-.4-3.22-.61l-15.87-3c-3-.55-6.13-1.13-9.39-1.66-1.63-.25-3.31-.54-5-.65h-.4s0-.08-.05-.12c.39.14.1 0 .19.09-.101.219-.24.419-.41.59a2.771 2.771 0 00-.62 1 4.405 4.405 0 00.17 2.42c.076.393.255.759.52 1.06.302.292.637.547 1 .76.727.431 1.486.805 2.27 1.12 1.57.64 3.16 1.15 4.75 1.62 3.16.94 6.26 1.68 9.2 2.46.74.2 1.47.4 2.18.62.361.103.716.23 1.06.38.211.076.397.207.54.38.111.165.202.343.27.53a30.181 30.181 0 001.57 3.86 13.06 13.06 0 005 5.32 25.588 25.588 0 005.7 2.3c1.494.431 3.023.729 4.57.89.976.105 1.959.138 2.94.1h.77l.22-.13zM253.79 442.62a3.85 3.85 0 011.23.06c1.113.162 2.197.482 3.22.95.709.325 1.379.728 2 1.2a3.563 3.563 0 011.48 2.32 2.865 2.865 0 01-1.48 2.64 5.552 5.552 0 01-3.18.66 59.539 59.539 0 01-10.91-1.61c-1.37-.35-2.46-.71-3.2-1a5.663 5.663 0 01-1.13-.49c.406.054.805.151 1.19.29.76.22 1.85.52 3.22.82a70.676 70.676 0 0010.85 1.45 5.123 5.123 0 002.89-.57 2.39 2.39 0 001.27-2.17 3.132 3.132 0 00-1.27-2 10.02 10.02 0 00-1.91-1.2 17.497 17.497 0 00-4.27-1.35z" fill="#EB996E"/><path d="M340.74 374.35s14.81-24.38 18.14-40.47 20.53-41.62 26.12-48.28c5.59-6.66 27.75-14.42 27.75-14.42l8.18-4.42 63.39-5.57s42.17 4.44 54.94 16.09c12.77 11.65 22.74 38.29 22.74 51.6 0 13.31 12.89 128.64 12.89 128.64l-156.21-.2 3.5-56.86s-18.87-12.76-23.86-23.86c-4.99-11.1-2.22-5.55-2.22-5.55s-17.71 37.65-23.81 42.09c-6.1 4.44-77.05 26.21-77.05 26.21l-9.71-37.23 55.21-27.77z" fill="#7ECB20"/><path d="M525.17 281.93c-1.71.53-22.87 55.18-24.36 60.15-1.49 4.97 0 36.29 0 36.29l7 12.93s-2 9.44-.5 13.92l-31.32 6s-7.95-5.47-15.41 0l-37 3.13s10.85.12 7.62 16.76c-3.16 16.3-5.57 19.88-5.57 19.88l129.85-3s14.43-.72 12.23-28.46c-2.2-27.74-8.39-104.26-8.39-104.26s-9.46-41-34.15-33.34z" fill="#7ECB20"/><path d="M500.52 374a2.852 2.852 0 01-.31-.67l-.79-2c-.34-.85-.75-1.9-1.15-3.15-.4-1.25-.93-2.64-1.35-4.23-.42-1.59-1-3.32-1.39-5.21-.39-1.89-.86-3.91-1.26-6a110.493 110.493 0 01-1.53-14.09 113.41 113.41 0 01.43-14.17c.26-2.16.47-4.22.82-6.13.16-1 .29-1.88.47-2.77.18-.89.36-1.72.53-2.53.32-1.61.73-3 1.06-4.32.33-1.32.64-2.34.93-3.22.29-.88.49-1.5.65-2 .075-.238.161-.471.26-.7a2.997 2.997 0 01-.16.73c-.14.51-.33 1.19-.56 2-.23.81-.56 2-.84 3.24-.28 1.24-.69 2.7-1 4.32-.16.81-.32 1.65-.49 2.53-.17.88-.29 1.8-.44 2.75-.33 1.91-.53 4-.77 6.12a106.232 106.232 0 001.09 28.12c.39 2.14.75 4.17 1.21 6 .46 1.83.89 3.62 1.32 5.21.43 1.59.9 3 1.28 4.24.38 1.24.75 2.31 1.06 3.17l.7 2c.093.248.17.502.23.76zM545.7 433.27s-.13-.12-.34-.38l-.86-1.15c-.37-.51-.83-1.12-1.39-1.8-.56-.68-1.17-1.49-1.92-2.32-.75-.83-1.54-1.76-2.46-2.69-.92-.93-1.92-1.92-3-2.93a74.248 74.248 0 00-7.48-6 74.847 74.847 0 00-8.24-4.88c-1.33-.64-2.58-1.27-3.8-1.76-1.22-.49-2.34-1-3.38-1.35-1.04-.35-2-.69-2.85-1-.85-.31-1.57-.5-2.17-.66l-1.38-.41a1.83 1.83 0 01-.48-.18c.169.008.337.034.5.08l1.41.31c.61.14 1.35.32 2.21.58.86.26 1.83.52 2.88.92 1.05.4 2.22.77 3.43 1.29s2.5 1.1 3.84 1.73a69.197 69.197 0 018.33 4.88 71.181 71.181 0 017.5 6.06c1.07 1 2.09 2 3 3 .91 1 1.71 1.89 2.43 2.75.72.86 1.32 1.68 1.87 2.38s1 1.34 1.32 1.86c.32.52.58.88.79 1.21.099.143.18.297.24.46zM556.63 426c-.08.07-1.23-1.24-3.39-3a34.308 34.308 0 00-4-2.8 38.08 38.08 0 00-5.39-2.61 37.605 37.605 0 00-5.76-1.62 34.675 34.675 0 00-4.86-.57c-2.79-.11-4.52.1-4.53 0 .394-.113.8-.18 1.21-.2.474-.071.951-.114 1.43-.13.56 0 1.19-.07 1.9 0 1.656.028 3.308.185 4.94.47 1.993.364 3.951.903 5.85 1.61a34.235 34.235 0 015.46 2.68 31.514 31.514 0 014 2.92c.55.45 1 .91 1.39 1.3.354.312.688.646 1 1 .284.289.535.607.75.95zM544.62 407.71c-.06.09-1.59-1.13-4.39-2.51a22.63 22.63 0 00-2.34-1c-.84-.36-1.78-.63-2.76-.94a31.649 31.649 0 00-13.27-.91c-1 .17-2 .31-2.86.55-.832.189-1.653.423-2.46.7-3 1-4.64 2-4.69 1.88a6.519 6.519 0 011.17-.71c.46-.272.937-.513 1.43-.72a20.28 20.28 0 012-.8 21.283 21.283 0 012.47-.76 27.853 27.853 0 012.9-.62 30.48 30.48 0 0113.47.93c.949.276 1.881.61 2.79 1 .805.314 1.59.678 2.35 1.09.632.323 1.246.68 1.84 1.07.462.266.903.567 1.32.9.375.243.72.528 1.03.85zM468.68 448.69c.418-1.833.725-3.69.92-5.56.157-2.034.14-4.079-.05-6.11a48.85 48.85 0 00-1.3-7.37 51.639 51.639 0 00-2.49-7 38.585 38.585 0 00-3-5.34 51.055 51.055 0 00-3.53-4.41c.409.302.794.637 1.15 1 .437.411.845.852 1.22 1.32l.72.85c.25.32.48.66.74 1a34.628 34.628 0 013.1 5.35A43.238 43.238 0 01470 437a33.752 33.752 0 01-.06 6.18c-.05.44-.1.85-.14 1.25l-.22 1.1c-.094.59-.235 1.172-.42 1.74-.122.485-.283.96-.48 1.42zM446.91 411.16a.993.993 0 01-.06-.29c0-.22-.08-.5-.14-.85-.11-.79-.27-1.89-.47-3.29-.41-2.86-.94-7-1.56-12.14-1.23-10.25-2.7-24.45-3.85-40.17-1.15-15.72-1.75-30-2-40.31-.14-5.16-.21-9.34-.23-12.23V297.69a.15.15 0 01-.119-.162.148.148 0 01.149-.135c.037 0 .073.014.101.039a.153.153 0 01.048.096.149.149 0 01-.119.162v.87c0 .79.06 1.9.11 3.32l.38 12.22c.37 10.32 1 24.57 2.17 40.29 1.17 15.72 2.56 29.9 3.7 40.16.58 5.1 1.06 9.24 1.39 12.15.16 1.41.28 2.51.37 3.31 0 .35.07.63.09.86.022.095.036.192.04.29zM395.9 371.77a11.42 11.42 0 01-.68-1.53c-.4-1-1-2.43-1.75-4.2-1.5-3.53-3.74-8.34-6.42-13.56-2.68-5.22-5.1-9.85-6.91-13.33-.87-1.72-1.57-3.11-2-4.08a10.783 10.783 0 01-.67-1.54c.326.453.611.935.85 1.44l2.17 4c1.82 3.38 4.38 8 7.06 13.27 2.68 5.27 4.87 10.07 6.29 13.65.71 1.79 1.26 3.25 1.6 4.27.195.524.349 1.062.46 1.61z" fill="#263238"/><path d="M387.92 353.29a3.07 3.07 0 01-.91-.17c-.57-.14-1.39-.38-2.4-.71a59.247 59.247 0 01-14.78-7.32c-.87-.6-1.56-1.11-2-1.48a3.522 3.522 0 01-.68-.61c1 .542 1.972 1.136 2.91 1.78 1.78 1.12 4.28 2.59 7.16 4a87.75 87.75 0 007.53 3.26c1.077.363 2.135.78 3.17 1.25zM374.51 387.44a5.408 5.408 0 01-1.08-.65c-.66-.45-1.64-1.09-2.87-1.83a59.15 59.15 0 00-20.91-7.83 68.37 68.37 0 00-3.37-.51 5.49 5.49 0 01-1.24-.21 5.53 5.53 0 011.26 0c.8 0 2 .14 3.41.34a52.511 52.511 0 0111 2.8 53.196 53.196 0 0110.1 5.08c1.21.8 2.16 1.48 2.79 2 .327.242.631.513.91.81zM482.63 261.28a8.127 8.127 0 01-.06.81c-.07.58-.16 1.35-.27 2.32-.26 2-.62 4.92-1.23 8.5a107.807 107.807 0 01-2.8 12.44 58.022 58.022 0 01-6.27 14.28 43.827 43.827 0 01-5.21 6.68l-.2.22-.19-.25a26.45 26.45 0 00-9.49-7.87 25.223 25.223 0 00-5-1.84 22.165 22.165 0 00-4.55-.61c-2.197-.078-4.39.23-6.48.91-1.45.51-2.22.89-2.24.84a3.7 3.7 0 01.55-.29 13.606 13.606 0 011.63-.72 18.152 18.152 0 016.55-1.07c1.562.022 3.117.21 4.64.56a25.506 25.506 0 015.1 1.82 26.654 26.654 0 019.7 8h-.39a44.455 44.455 0 005.14-6.6 58.95 58.95 0 006.27-14.14 117.402 117.402 0 002.9-12.36c.66-3.56 1.07-6.47 1.39-8.47.15-1 .28-1.73.37-2.3.011-.291.058-.58.14-.86z" fill="#263238"/><path d="M483.48 261.91l-9.63-12.77-10.47.33-34.02 17.97 54.12-5.53z" fill="#7ECB20"/><path d="M438.62 297.71a2.3 2.3 0 01-.55 0 12.067 12.067 0 01-1.57-.26 19.496 19.496 0 01-5.37-2.3 11.777 11.777 0 00-3.65-1.51 10.76 10.76 0 00-4.52 0 10.568 10.568 0 00-7.55 6.57l-.54 1.46v-1.56-1.22c.12-7.88.13-15 .45-20.19.15-2.58.35-4.67.57-6.1.09-.72.2-1.27.28-1.64.031-.19.078-.378.14-.56.05 0-.09.79-.22 2.23s-.3 3.51-.4 6.09c-.23 5.16-.17 12.29-.3 20.18v1.23l-.5-.1a11.002 11.002 0 017.94-6.85 11.208 11.208 0 018.44 1.67 21.15 21.15 0 005.24 2.42c1.35.34 2.12.39 2.11.44z" fill="#263238"/><path d="M473.85 187.3V264a18.604 18.604 0 01-4.37 12 56.464 56.464 0 01-15.4 12.75l-15.46 8.71-12.8-11.46a18.628 18.628 0 01-6.19-13.15c-.22-5.58-.22-11.21-.22-11.21s-21.67-1.56-23.71-22.93c-1-10.06-1.26-30.67-1.31-49.67a41.578 41.578 0 0138.15-41.53l.61-.05a39.742 39.742 0 0140.7 39.84z" fill="#FFBE9D"/><path d="M419.35 261.32s13.61 0 27.24-10.24c0 0-5.32 15.94-26.83 15.78l-.41-5.54z" fill="#EB996E"/><path d="M401.59 203.39a3.066 3.066 0 001.024 2.069 3.066 3.066 0 002.176.771 2.931 2.931 0 002.92-3 3.063 3.063 0 00-3.19-2.84 2.925 2.925 0 00-2.727 1.857 2.92 2.92 0 00-.203 1.143zM399.85 197.65c.41.36 2.58-1.54 5.87-1.8s5.84 1.18 6.16.75c.16-.2-.28-.88-1.4-1.56a8.37 8.37 0 00-5-1.09 7.998 7.998 0 00-4.63 1.93c-.92.86-1.2 1.6-1 1.77zM432.87 202.06a3.066 3.066 0 001.024 2.069 3.066 3.066 0 002.176.771 2.94 2.94 0 002.93-3 3.07 3.07 0 00-3.2-2.84 2.932 2.932 0 00-2.094.886 2.941 2.941 0 00-.836 2.114zM432.22 195.59c.41.36 2.59-1.54 5.87-1.8 3.28-.26 5.84 1.18 6.16.74.16-.19-.28-.88-1.4-1.55a8.437 8.437 0 00-5-1.1 8.052 8.052 0 00-4.63 1.93c-.92.86-1.22 1.61-1 1.78zM422.3 221c0-.19-2.07-.38-5.42-.53-.84 0-1.65-.11-1.84-.67a4.32 4.32 0 01.35-2.54c.63-2.1 1.28-4.29 2-6.6 2.69-9.39 4.57-17.08 4.19-17.18-.38-.1-2.87 7.42-5.56 16.8-.65 2.32-1.27 4.52-1.85 6.63a4.827 4.827 0 00-.16 3.33 2.094 2.094 0 001.48 1.12c.474.088.958.115 1.44.08 3.31-.14 5.38-.3 5.37-.44zM432.17 222.43c-.54 0-.25 3.58-3.1 6.37s-6.67 2.71-6.66 3.21c0 .22.91.62 2.52.53a8.89 8.89 0 005.57-2.48 7.72 7.72 0 002.37-5.32c.01-1.5-.46-2.35-.7-2.31zM430.3 182.77c.4.87 3.65.17 7.54.32s7.11.94 7.55.09c.2-.4-.41-1.19-1.74-2a13.137 13.137 0 00-11.5-.31c-1.37.73-2.02 1.49-1.85 1.9zM400.27 188c.64.7 2.84-.26 5.56-.52 2.72-.26 5.07.08 5.54-.74.2-.4-.22-1.12-1.29-1.74a7.759 7.759 0 00-4.63-.85 7.633 7.633 0 00-4.31 1.87c-.9.87-1.14 1.67-.87 1.98zM448.68 165.76l.12.08a16.929 16.929 0 017.2 10.37l.09.43c1.34 6 1.71 12.25 3.11 18.27s1.14 10.62 7.17 12a7.998 7.998 0 008.39-3.41 5.148 5.148 0 00.53-2.86c-.07-14.82 2.91-20.58 1.6-36a13 13 0 00-6.26-10.12c-3.42-2.05-7.56-4.12-11-2.13-3.44 1.99-7.53 9.09-10.08 12.17" fill="#263238"/><path d="M467.43 197.57c.36-.18 14.34-5.56 15.09 9.11.75 14.67-14.14 12.38-14.18 12-.04-.38-.91-21.11-.91-21.11z" fill="#FFBE9D"/><path d="M472.54 212.86c.06-.05.26.17.7.34.62.229 1.305.208 1.91-.06 1.52-.64 2.7-3.17 2.64-5.82a8.408 8.408 0 00-.9-3.62 2.94 2.94 0 00-2-1.86 1.287 1.287 0 00-1.47.78c-.18.42-.07.7-.15.73-.08.03-.32-.23-.24-.84.066-.367.253-.701.53-.95a1.998 1.998 0 011.4-.44 3.598 3.598 0 012.78 2.14 8.631 8.631 0 011.09 4c.06 3-1.31 5.8-3.4 6.52a2.723 2.723 0 01-2.36-.27c-.49-.3-.58-.62-.53-.65z" fill="#EB996E"/><path d="M460.27 154.6c3.12-6.15-7.44-13.74-14.85-15.42-7.41-1.68-16.63 2.63-23.61 5.61-4.41 1.88-8.75 4.35-13.54 4.54-3.21.14-6.36-.77-9.47-1.59-3.11-.82-6.33-1.56-9.51-1.07-3.18.49-6.33 2.45-7.29 5.52-.96 3.07 1.1 7 4.31 7.16-4.23-1.89-9.85 1.51-10.12 6.14-.27 4.63 4.88 8.68 9.31 7.33-2.21-1.41-5.19 1.46-4.71 4 .48 2.54 3 4.28 5.45 5.13 6.33 2.17 13.37.73 19.51-1.92 6.14-2.65 11.71-6.44 17.78-9.24s16.22-7.76 22.68-6.07c4.76 1.25 8.44 6.56 11 5.11a8.994 8.994 0 004.08-7 25.7 25.7 0 00-1-8.3" fill="#263238"/><path d="M384.51 159.09c.12-.08.84 1 2.56 2.6a20.21 20.21 0 008.56 4.55 18.59 18.59 0 0013.9-1.71c4.79-2.64 8.68-7.46 13.23-12.06 4.55-4.6 10.05-8.26 15.79-9.26 5.74-1 11.18.64 14.38 3.68a12.85 12.85 0 014.11 9.18c-.01.931-.148 1.856-.41 2.75-.22.59-.36.89-.41.87.178-1.192.262-2.395.25-3.6a12.628 12.628 0 00-4.22-8.44c-3-2.7-8.14-4.15-13.46-3.13-5.32 1.02-10.57 4.44-15 9s-8.47 9.45-13.6 12.21a20.001 20.001 0 01-23.51-3.61c-.638-.66-1.21-1.38-1.71-2.15-.35-.56-.5-.85-.46-.88zM471.11 196.63c-.05.05-.67-.35-1.32-1.47a9.843 9.843 0 01-1.16-5.24c-.07-4.74 3.68-10.14 3.67-16.69a14.763 14.763 0 00-2.34-8.6 11.28 11.28 0 00-5.83-4.25 9.537 9.537 0 00-4.94-.26c-1.16.29-1.76.61-1.83.5-.07-.11.48-.56 1.67-1a9.24 9.24 0 015.38-.19 11.89 11.89 0 016.64 4.47 15.568 15.568 0 012.7 9.38 26.717 26.717 0 01-2.06 9.45 27.912 27.912 0 00-2 7.29c-.46 4.31 1.62 6.52 1.42 6.61z" fill="#455A64"/><path d="M479.61 205.419l-2.384-2.209a2.14 2.14 0 00-3.024.116l-8.938 9.645a2.14 2.14 0 00.115 3.024l2.384 2.209a2.139 2.139 0 003.024-.115l8.938-9.645a2.14 2.14 0 00-.115-3.025zM562.06 332.17s0 .2.06.59c.06.39.07 1 .13 1.72.11 1.53.26 3.78.47 6.7.4 5.88 1 14.47 1.71 25.36.71 10.89 1.57 24.08 2.57 39.15.24 3.767.493 7.65.76 11.65.15 2 .23 4 .32 6.1a29.33 29.33 0 010 3.11 30.407 30.407 0 01-.17 3.15l-.39 3.18c-.23 1.05-.46 2.11-.68 3.17-.22 1.06-.66 2.08-1 3.13-.34 1.05-.84 2.05-1.38 3-2.1 3.89-5.37 7.53-9.91 9H425.32l.09-.33c.95-3.38 1.89-6.72 2.82-10.05.473-1.66.936-3.327 1.39-5a34.604 34.604 0 001.16-4.93c.48-3.296.186-6.658-.86-9.82a12.006 12.006 0 00-2.34-4.22 6.881 6.881 0 00-4-2.35l-2.05-.32 2-.17 36.95-3.1h-.11a12.615 12.615 0 018-2.45c2.738.146 5.393.993 7.71 2.46h-.17l31.33-5.9-.14.24a13.1 13.1 0 01-.54-3.69 29.956 29.956 0 01.1-3.57c.177-2.271.494-4.528.95-6.76v.12c-2.51-4.69-4.81-9-6.94-12.94v-.06c-.49-11.53-.67-20.62-.58-26.82 0-3.1.15-5.48.31-7.08.044-.606.135-1.208.27-1.8.09-.4.14-.6.14-.6s0 .21-.1.61a13.126 13.126 0 00-.23 1.8c-.14 1.6-.23 4-.24 7.07 0 6.2.18 15.29.71 26.81v-.06c2.13 3.95 4.45 8.23 7 12.91v.06A56.407 56.407 0 00507 398a29.451 29.451 0 00-.09 3.54c.007 1.212.186 2.417.53 3.58l.06.2h-.2l-31.32 6h-.08l-.08-.05a15.449 15.449 0 00-7.48-2.36 12.079 12.079 0 00-7.67 2.37h-.12l-36.94 3.14v-.49a7.328 7.328 0 014.32 2.5 12.626 12.626 0 012.44 4.4 21.891 21.891 0 01.89 10.05 34.397 34.397 0 01-1.17 5c-.46 1.653-.924 3.32-1.39 5-.934 3.333-1.87 6.667-2.81 10l-.25-.33h31l97.83.07a15.009 15.009 0 005.67-3.5 21.113 21.113 0 003.95-5.29c.53-1 .91-2 1.36-3 .45-1 .68-2.06 1-3.09.32-1.03.45-2.09.68-3.13.23-1.04.26-2.11.39-3.15.114-1.036.174-2.078.18-3.12a28.954 28.954 0 000-3.09c-.09-2.05-.16-4.07-.31-6.07-.247-4-.494-7.887-.74-11.66-1-15.07-1.79-28.27-2.48-39.17-.69-10.9-1.21-19.48-1.58-25.36-.17-2.92-.31-5.18-.4-6.71 0-.75-.07-1.32-.09-1.72-.02-.4-.04-.39-.04-.39zM533.74 277.68c-.573.402-1.167.773-1.78 1.11a41.749 41.749 0 00-4.63 3.32 54.304 54.304 0 00-12 14.34 118.352 118.352 0 00-8 17l-2.08 5.32-.58 1.45a2.128 2.128 0 01-.23.49c.019-.182.063-.36.13-.53.13-.39.3-.88.49-1.48.44-1.28 1.08-3.12 1.93-5.39a107.132 107.132 0 017.89-17.15 52.078 52.078 0 0112.2-14.36 35.36 35.36 0 014.76-3.2c.58-.35 1.07-.56 1.38-.72.165-.086.34-.153.52-.2z" fill="#263238"/><path opacity=".3" d="M494.6 315.87a66.368 66.368 0 00-5.6 29.91c.38 10.16 1.6 20.35.6 30.48-1 10.13-4.51 20.46-12.06 27.27a9.806 9.806 0 00-2.44 2.71 2.752 2.752 0 00.47 3.35 4.009 4.009 0 003.14.33c7.23-1.26 14.55-2.16 21.79-3.41 1.55-.27 6.76-1.29 6.76-1.29a28.26 28.26 0 01-.44-6c.23-1.81.94-8 .94-8-.342-.92-.81-1.788-1.39-2.58a59.142 59.142 0 01-6-15.39c-2.47-5.05-3.58-10.13-4.73-14.85-3.17-13.11-3.08-26-1.06-42.61M415.33 300.94c.59 1.5 1.19 3 1.78 4.51a1.81 1.81 0 00.86 1.13c.89.34 1.6-.75 2-1.61a11.543 11.543 0 018.87-6.23c3-.35 6.16.53 9.15-.09a40.516 40.516 0 00-8.26-4.11 13.698 13.698 0 00-9.07-.09 8.378 8.378 0 00-3.699 2.643 8.378 8.378 0 00-1.771 4.187M440.05 297.15a48.721 48.721 0 0110.59 1 16.52 16.52 0 019.07 5.22c2.42 2.95 3.32 6.82 4.3 10.5.19.71.53 1.55 1.25 1.63a1.778 1.778 0 001.2-.47c6-4.4 9.94-11.13 12.1-18.23s2.66-14.58 2.78-22c-2.86 5.11-4.1 10.93-6 16.47-1.9 5.54-4.67 11.12-9.57 14.32a4.779 4.779 0 00-1.12-3.51 10.507 10.507 0 00-2.91-2.38 27.797 27.797 0 00-22.26-2.73" fill="#000"/><path d="M424.51 414.94h-12.25s-27.63-10-33.31-9c-5.12.86-23.85 13.3-27.52 15.77-.41.272-.721.668-.89 1.13a4 4 0 002.24 5.1l.38.16-.16.56a6.637 6.637 0 00-.29 2.24 2.704 2.704 0 002.079 2.393 2.696 2.696 0 002.921-1.233l-.7 1.26a3 3 0 00-.39 1.68l.06 1.13a3.075 3.075 0 002.12 2.76 3.07 3.07 0 003.2-.89c2.38-2.61 7.51-7.84 11-8.42a81.077 81.077 0 0111.34-.57 3.853 3.853 0 013.57 2.45c-2.06.15-16.42 7.64-21.5 10.32a5.416 5.416 0 00-2.95 4.09c-.19 1.59.61 3.25 3.76 2.52 6.75-1.58 18.9-7.16 18.9-7.16s6.26-1.79 10.32 1.07c5.71 4 8.33 5.51 13.23 3.88a41.52 41.52 0 008.52-4l9.66-1s9.15-22.74-3.34-26.24z" fill="#FFBE9D"/><path d="M388 419.6c0 .11-2-.51-5.19-.72a26.777 26.777 0 00-22.33 9.53 51.615 51.615 0 00-3.07 4.25c.153-.449.357-.879.61-1.28a23.192 23.192 0 012.17-3.2 25.944 25.944 0 0122.65-9.66c1.285.111 2.559.325 3.81.64.465.097.917.244 1.35.44z" fill="#EB996E"/><path d="M385.1 412.89a21.01 21.01 0 00-18 2.62 50.39 50.39 0 00-10.1 8.57l-2.78 2.92a7.114 7.114 0 01-1.06 1c.272-.416.577-.811.91-1.18.61-.74 1.51-1.79 2.66-3.06a46.52 46.52 0 0110.13-8.77 23.004 23.004 0 0112.85-3.48c1.36.069 2.705.318 4 .74.341.11.675.24 1 .39l.39.25z" fill="#EB996E"/><path d="M544.62 135.11a40.884 40.884 0 00-36.254 21.967 40.88 40.88 0 002.714 42.303l-4.91 15.25 15-5.11a40.9 40.9 0 0036.592 5.19 40.89 40.89 0 00-13.172-79.6h.03z" fill="#fff"/><path d="M533.84 175.68a3.534 3.534 0 01-2.274 3.198 3.534 3.534 0 01-3.824-.879 3.53 3.53 0 116.098-2.319zM548 176.11a3.534 3.534 0 01-2.274 3.198 3.534 3.534 0 01-3.824-.879A3.53 3.53 0 11548 176.11zM562.07 174.77a3.529 3.529 0 01-2.077 5.05 3.524 3.524 0 01-3.757-1.134 3.53 3.53 0 115.834-3.916z" fill="#263238"/><path d="M545.88 134.83c.236-.029.474-.029.71 0l2.1.12c.46 0 1 0 1.54.11l1.84.32 2.15.37 2.39.67a39.251 39.251 0 0111.52 5.45 41.202 41.202 0 0118 31.55 42.61 42.61 0 010 5.65c-.1.95-.11 1.92-.28 2.88-.17.96-.35 1.92-.52 2.9a41.586 41.586 0 01-4.33 11.38 44.486 44.486 0 01-7.82 10.1 43.422 43.422 0 01-11.05 7.45 39.475 39.475 0 01-13.3 3.65c-1.171.143-2.35.207-3.53.19a32.52 32.52 0 01-3.56 0 43.01 43.01 0 01-7.09-1.11 41.763 41.763 0 01-14-6.4l.43.06-14.61 5.36-.87.32.27-.88 4.71-15.31.06.38a41.325 41.325 0 01-7.17-17.86 37.382 37.382 0 01-.29-9.06c.072-1.452.253-2.896.54-4.32l.39-2.11c.15-.69.38-1.35.57-2a41.297 41.297 0 0116.81-23 39.622 39.622 0 019.74-4.77l2.18-.71 2.07-.46 1.89-.4c.6-.1 1.18-.15 1.73-.21 1.1-.11 2.06-.27 2.9-.28h3.42c.146-.019.294-.019.44 0a1.904 1.904 0 01-.44 0l-1.29.07-2.13.07c-.83 0-1.79.22-2.87.35a41.047 41.047 0 00-33.75 29.46c-.17.66-.4 1.32-.54 2-.14.68-.25 1.38-.38 2.07a29.613 29.613 0 00-.51 4.25 37.357 37.357 0 00.32 8.87 40.745 40.745 0 007.08 17.49l.13.17-.07.21c-1.507 4.953-3.063 10.06-4.67 15.32l-.6-.57 14.61-5.37.23-.09.2.14a40.638 40.638 0 0013.68 6.24 40.1 40.1 0 006.93 1.09 31.08 31.08 0 003.48.05c1.15.012 2.299-.051 3.44-.19a38.463 38.463 0 0013-3.55 42.657 42.657 0 0010.83-7.27 43.37 43.37 0 007.67-9.87 40.52 40.52 0 004.22-11.13c.18-1 .35-1.9.53-2.83.18-.93.18-1.9.28-2.83.146-1.846.173-3.7.08-5.55a40.812 40.812 0 00-17.52-31.16 39.217 39.217 0 00-11.34-5.53l-2.36-.7-2.12-.42-1.82-.35c-.56-.08-1.08-.11-1.53-.16l-2.08-.22a5.039 5.039 0 01-.67-.09zM635 447.49a10.078 10.078 0 00-6.64 3.69 7.304 7.304 0 00-.93 7.35 5.774 5.774 0 006.45 3.16 3.65 3.65 0 007.29.12 4.346 4.346 0 004.957 1.16 4.35 4.35 0 002.663-4.34c-.08-1.15-.61-2.22-.74-3.35a36.106 36.106 0 01.14-3.75 3.178 3.178 0 00-1.76-3.06M583.68 454.27a43.414 43.414 0 0112.76-5.1c3.23-.83 6.7-1.51 9.87-.47a9.746 9.746 0 016.24 6.58 4.821 4.821 0 01-.16 3.51c-.75 1.41-2.41 2.06-4 2.44-1.18.3-2.7.39-3.36-.64a4.594 4.594 0 01-3.241 1.729 4.58 4.58 0 01-3.469-1.209 4.429 4.429 0 01-8.44-2.48 4.88 4.88 0 01-4.27 2.11 3.994 3.994 0 01-2.243-.937 3.991 3.991 0 01-1.287-2.063 3.402 3.402 0 012.37-3.85" fill="#263238"/><path d="M546.26 453.63a10.997 10.997 0 014.26-11.43c4-2.89 6.84-6.25 12.06-9.36a77.789 77.789 0 0112.77-5.49c10.25-3.4 17.18-4.26 21.39-6.47 4.61-2.41 10.77-6.21 10.77-6.21l52.32 4.06s6.29 38.64-3.23 42.42c0 0-44.34.46-47.82-1.08-3.78-1.67-61.47-1.64-61.3-1.26l-1.22-5.18z" fill="#263238"/><path d="M574.58 446.25a164.315 164.315 0 01-28.1 2.26 50.335 50.335 0 00-9.9.64 10.84 10.84 0 00-5.4 2.51 5.323 5.323 0 00-1.53 5.5c.71 1.88 3.2 3 4.91 1.95a3.999 3.999 0 007.3 1.41 3.377 3.377 0 003.21 1 13.269 13.269 0 003.28-1.27c4.56-2.13 9.41-1.6 14.45-1.57 8.8.06 18.76 0 15.09 0" fill="#263238"/><path d="M577.89 458.69c.245-.032.493-.049.74-.05v.09h-2.09l-8 .09h-5.62c-2 0-4.22-.1-6.52 0-2.426.01-4.831.439-7.11 1.27a37.014 37.014 0 01-3.63 1.53c-.685.2-1.407.241-2.11.12a3.137 3.137 0 01-1.91-1.09h.42a4.254 4.254 0 01-4.4 1.915 4.248 4.248 0 01-3.38-3.405l.4.17a3.654 3.654 0 01-4.15-.51 3.887 3.887 0 01-1.37-2.44 5.277 5.277 0 01.35-2.73 7.147 7.147 0 013.71-3.69 16.575 16.575 0 014.87-1.32 39.532 39.532 0 014.8-.34c6.23 0 11.83-.06 16.52-.41 4.69-.35 8.48-.82 11.09-1.15l3-.39.78-.09h.27l-.26.07-.78.14-3 .48c-2.61.39-6.39.94-11.09 1.32-4.7.38-10.33.47-16.54.52a40.638 40.638 0 00-4.74.35c-1.629.19-3.221.625-4.72 1.29a6.61 6.61 0 00-3.45 3.43 3.914 3.914 0 00.88 4.57 3.111 3.111 0 003.53.47l.32-.21.07.38a3.742 3.742 0 002.969 2.995 3.743 3.743 0 003.871-1.675l.19-.3.22.28a3.312 3.312 0 003.49.81 38.567 38.567 0 003.59-1.5 21.048 21.048 0 017.27-1.26c2.33-.05 4.51.08 6.54.09l5.61.05 8 .06h2.09v.09a3.85 3.85 0 01-.72-.02zM647.89 456.64c.241.22.44.481.59.77.438.828.605 1.772.48 2.7a4.652 4.652 0 01-.67 1.88 3.995 3.995 0 01-1.79 1.54 4.723 4.723 0 01-5.32-1.14l.36-.07a4.086 4.086 0 01-3.88 2.796 4.088 4.088 0 01-3.88-2.796l.3.16c-2.77.69-5.87-1.18-7-4a7.553 7.553 0 01.43-6.35 10.311 10.311 0 014.18-4.27 14.377 14.377 0 015.16-1.63c1.56-.19 3.135-.216 4.7-.08a62.93 62.93 0 016.69 1l1.8.35c.21.036.417.086.62.15a2.365 2.365 0 01-.64 0l-1.82-.26c-1.58-.23-3.85-.67-6.68-.87a17.317 17.317 0 00-9.59 1.76 9.807 9.807 0 00-4 4.08 7.007 7.007 0 00-.41 5.92c1.08 2.6 4 4.31 6.44 3.69h.23l.07.22a3.709 3.709 0 003.62 2.5 3.775 3.775 0 003.26-2.45l.12-.35.24.28a4.355 4.355 0 004.86 1.1 4 4 0 002.35-3.14 4.455 4.455 0 00-.35-2.6c-.27-.62-.5-.87-.47-.89z" fill="#455A64"/><path d="M655.72 446.62c-.06.06-.6-.47-1.65-1a8.186 8.186 0 00-8.72.44c-1 .68-1.47 1.26-1.54 1.2a4.08 4.08 0 011.32-1.49 7.805 7.805 0 014.489-1.71 7.803 7.803 0 014.641 1.24 4.06 4.06 0 011.46 1.32zM583.49 460.39a2.263 2.263 0 01-.39-.26 4.494 4.494 0 01-.86-1 6.202 6.202 0 01-.56-4.81 9.758 9.758 0 014.7-5.44c2.38-1.43 5.3-2.22 8.13-3.48a27.841 27.841 0 0014-14.59c.197-.562.43-1.109.7-1.64a2.169 2.169 0 01-.1.45c-.09.29-.2.73-.41 1.26a23.82 23.82 0 01-2.11 4.4 26.996 26.996 0 01-11.88 10.6c-2.89 1.28-5.79 2-8.1 3.41a9.53 9.53 0 00-4.59 5.13 6.079 6.079 0 00.38 4.61c.306.497.672.954 1.09 1.36z" fill="#455A64"/><path d="M604.33 460.07c.335.35.719.65 1.14.89a4.337 4.337 0 003.74.06 4.996 4.996 0 002.59-4.73 6.563 6.563 0 00-.91-3.21 8.563 8.563 0 00-2.49-2.64 12 12 0 00-6.73-2c-1.965.03-3.917.33-5.8.89-1.62.46-2.91.92-3.8 1.22a9.4 9.4 0 01-1.41.44c.42-.255.866-.466 1.33-.63.88-.36 2.15-.87 3.78-1.38a20.437 20.437 0 015.9-1 12.18 12.18 0 017 2.08 8.83 8.83 0 012.64 2.81 6.995 6.995 0 01.95 3.47 5.293 5.293 0 01-2.92 5.06 4.43 4.43 0 01-4-.21 3.241 3.241 0 01-.84-.73c-.12-.26-.18-.37-.17-.39z" fill="#455A64"/><path d="M598.5 460.8a4.437 4.437 0 001.67 1.08 4.866 4.866 0 002.08.35 2.762 2.762 0 002-1.35 3.163 3.163 0 00.21-2.46 6.125 6.125 0 00-1-1.91 15.748 15.748 0 01-1.28-1.61 5.566 5.566 0 011.56 1.38c.523.58.921 1.261 1.17 2a3.617 3.617 0 01-.21 2.86 3.222 3.222 0 01-2.42 1.57 4.774 4.774 0 01-2.28-.49 3.8 3.8 0 01-1.27-.91c-.22-.31-.26-.5-.23-.51z" fill="#455A64"/><path d="M590.1 458.93c.016.263.016.527 0 .79a3.88 3.88 0 00.55 2 3.614 3.614 0 002.39 1.74 4.269 4.269 0 003.51-.81 4.859 4.859 0 001.72-3.24 5.362 5.362 0 00-.58-3 9.681 9.681 0 00-1.82-2.27s.28.09.7.41a5.844 5.844 0 011.44 1.69c.574.971.833 2.096.74 3.22a5.226 5.226 0 01-1.87 3.59 4.716 4.716 0 01-4 .88 3.915 3.915 0 01-2.6-2 3.705 3.705 0 01-.43-2.18c.005-.291.092-.575.25-.82z" fill="#455A64"/><path d="M610.87 423.67s11.07 12.19 24.8 10.65c13.73-1.54 24.33-14.86 24.33-14.86 2.11-3.35 1.24-6.81.58-9.37-.66-2.56-1.92-5-1.93-7.66 0-2.26.89-4.41 1.54-6.57 1.45-4.84 1.68-10 1.9-15 .09-2.17 0-4.75-1.86-5.91a4.161 4.161 0 00-3.87-.07 11.523 11.523 0 00-3.2 2.41 136.592 136.592 0 00-11.63 12.66 15.12 15.12 0 00-18.76 1.51c-5.87-2.46-7.81-10.69-13.82-12.8a4.321 4.321 0 00-4 .29c-1.47 1.1-1.55 3.22-1.49 5.05.25 8.23.55 16.7 3.9 24.22a16.256 16.256 0 003.18 14.78" fill="#263238"/><path d="M631 425.41a5.52 5.52 0 016.82-1.94c.3.114.565.303.77.55.1.124.16.276.173.434a.798.798 0 01-.103.456.69.69 0 00-.5-.219.692.692 0 00-.5.219 1.61 1.61 0 00-.35 1.09c.017.391-.027.783-.13 1.16a1.422 1.422 0 01-1 .86 1.4 1.4 0 01-1.27-.43 4.466 4.466 0 01-.6-1.07 1.363 1.363 0 00-.87-.81 1.916 1.916 0 00-1 .21 1.265 1.265 0 01-.95.09c-.3-.14-.44-.61-.17-.79" fill="#455A64"/><path d="M636.08 426.93c.08 0 .06.44.22 1.09a4.001 4.001 0 003.65 3.09c.67.05 1.1-.05 1.12 0 .02.05-.38.29-1.12.34a3.94 3.94 0 01-2.68-.91 3.859 3.859 0 01-1.33-2.49c-.08-.7.06-1.13.14-1.12z" fill="#455A64"/><path d="M636.16 426.28c.05 0 .34.46.37 1.35a4.097 4.097 0 01-2.786 4.025 4.1 4.1 0 01-1.724.195c-.89-.09-1.35-.42-1.32-.47.03-.05.52.11 1.33.1a4.001 4.001 0 004.13-3.86c.07-.81-.09-1.32 0-1.34zM657.34 430.86a26.511 26.511 0 00-14.89-1.86 6.999 6.999 0 012.18-.59 19.627 19.627 0 0110.74 1.33c.715.261 1.38.639 1.97 1.12zM663.71 428.15c0 .08-1.26-.23-3.27-.58a49.078 49.078 0 00-15.86-.27c-2 .29-3.26.55-3.28.47a3.12 3.12 0 01.85-.29c.55-.17 1.36-.35 2.37-.55a40.617 40.617 0 0116 .27c1 .23 1.81.45 2.36.63.291.066.571.173.83.32zM667.08 421.06c0 .08-1.52 0-4 0a52.198 52.198 0 00-9.43.78 33.57 33.57 0 00-9 2.93c-2.17 1.09-3.38 2-3.43 1.92.238-.265.511-.497.81-.69a23.111 23.111 0 012.45-1.56 30.682 30.682 0 019-3.12 44.773 44.773 0 019.54-.63c1.22 0 2.21.12 2.88.19a4.81 4.81 0 011.18.18zM609.74 437s.19-.23.59-.58a19.271 19.271 0 011.78-1.35 27.746 27.746 0 0113.83-4.67 18.435 18.435 0 012.23 0 2.77 2.77 0 01.82.1c0 .09-1.16.09-3 .27a32.386 32.386 0 00-13.66 4.62c-1.61.92-2.53 1.61-2.59 1.61zM608.9 431.4s.26-.18.76-.4c.5-.22 1.24-.51 2.17-.83a36.29 36.29 0 0115.17-1.63c1 .11 1.76.23 2.29.34.286.035.566.112.83.23 0 .08-1.21-.08-3.16-.21a46.45 46.45 0 00-7.57.16 45.928 45.928 0 00-7.44 1.46 31.33 31.33 0 01-3.05.88z" fill="#455A64"/><path d="M601.93 429.06c.313-.198.649-.36 1-.48.964-.387 1.949-.72 2.95-1a42.468 42.468 0 0120.33-.71c1.29.28 2.31.55 3 .78.373.084.733.219 1.07.4 0 .09-1.58-.36-4.15-.82A48.095 48.095 0 00606 428c-2.52.59-4 1.14-4.07 1.06zM628.59 415.35a3.451 3.451 0 01-1.54 1.1 6.838 6.838 0 01-8.32-2.16 3.477 3.477 0 01-.81-1.71c.08 0 .37.63 1.1 1.48a7.057 7.057 0 007.89 2.05c1.09-.39 1.63-.83 1.68-.76zM650.86 410.55a2.655 2.655 0 01-.17 1.81 5.55 5.55 0 01-3.05 3.12 10.677 10.677 0 01-4.3.79 5.827 5.827 0 01-1.79-.14 6.525 6.525 0 011.78-.23 12.687 12.687 0 004.09-.89 5.68 5.68 0 002.93-2.79c.2-.547.371-1.104.51-1.67zM612.11 395.81a10.83 10.83 0 001.67-2.12c.484-.839.7-1.805.62-2.77a5.996 5.996 0 00-1.27-2.72 26.146 26.146 0 00-5.49-5.57s-1.58-1.2-2.29 0c-.48.8-.18 13.93 1.65 14.77 1.83.84 5.11-1.59 5.11-1.59zM657.49 377c-2.92 2.29-4 6.23-6.23 9.23a8.845 8.845 0 00-1 1.71c-.284.61-.344 1.3-.17 1.95a3.74 3.74 0 001.26 1.62 14.986 14.986 0 003.87 2.35s3 .93 3.83-1.82c.83-2.75.4-16.54-1.56-15.04z" fill="#455A64"/><path d="M564.57 433.69c-3.52.54-11.65-.81-14-3.26-2.35-2.45-1.71-6.29-.42-9.6 1.29-3.31 3.27-6.31 5-9.43 2.84-5.23 4.9-11 5.06-16.94.16-5.94-1.77-12.09-6-16.29-4.23-4.2-10.85-6.09-16.4-3.94-4.56 1.77-8.09 7-6.33 11.6 1.11 2.86 3.88 4.67 5.83 7a14.436 14.436 0 012.88 12.19c-1 4.59-4.29 8.4-5.52 12.94-1.87 6.92 1.52 14.6 7.24 18.94 5.72 4.34 13.3 5.63 20.42 4.79" fill="#263238"/><path d="M638.54 431.29s.43 2.68-.49 3.77a2.262 2.262 0 01-2.093.945 2.261 2.261 0 01-1.847-1.365 6.1 6.1 0 01-.64-2.74s2.38-.86 2.72-2.25a3.808 3.808 0 002.35 1.64z" fill="#7ECB20"/><path d="M650.66 432.38c-.223.324-.485.62-.78.88a17.985 17.985 0 01-2.48 2 20.287 20.287 0 01-20.21 1.63 18.98 18.98 0 01-2.77-1.61 5.433 5.433 0 01-.91-.74c.06-.09 1.38.95 3.83 2A21.001 21.001 0 00647.2 435c2.25-1.46 3.39-2.7 3.46-2.62zM636.38 450.39c0 .08-.69.45-1.6 1.36a7.728 7.728 0 00-1.43 9.16c.59 1.14 1.18 1.72 1.11 1.78a4.277 4.277 0 01-1.43-1.6 7.56 7.56 0 011.5-9.61 4.18 4.18 0 011.85-1.09zM646.12 451.55c-.682.116-1.352.297-2 .54a6.119 6.119 0 00-3.1 3.51 8.903 8.903 0 00-.07 4.8c.3 1.22.64 2 .56 2a4.852 4.852 0 01-.91-1.88 8.195 8.195 0 01-.07-5.07 6.002 6.002 0 013.45-3.68 3.072 3.072 0 012.14-.22zM619 445.08a4.717 4.717 0 01-.82 1.43 16.656 16.656 0 01-2.68 3 13.306 13.306 0 01-3.41 2.1 4.35 4.35 0 01-1.59.47c-.08-.17 2.34-1 4.67-3s3.69-4.08 3.83-4zM606.92 415a3.283 3.283 0 01-.57.44c-.38.28-1 .66-1.72 1.14a59.601 59.601 0 01-6.68 3.56 101.062 101.062 0 01-10.47 4.05c-4 1.31-8.48 2.55-13.09 4.08a76.985 76.985 0 00-12.62 5.24 42.901 42.901 0 00-9.06 6.45 32.334 32.334 0 00-4.84 5.73c-1 1.49-1.4 2.38-1.45 2.35.073-.227.17-.445.29-.65.3-.621.634-1.225 1-1.81a29.96 29.96 0 014.76-5.89 41.92 41.92 0 019.08-6.6 74.638 74.638 0 0112.68-5.31c4.63-1.54 9.11-2.76 13.12-4.05a107.082 107.082 0 0010.46-3.93 71.665 71.665 0 006.73-3.39c.77-.45 1.36-.81 1.76-1.06.197-.133.404-.25.62-.35zM612.2 423.93a6.907 6.907 0 01-1.56-1.77 17.99 17.99 0 01-2.51-5.13 18.385 18.385 0 01-.8-5.65 7.287 7.287 0 01.29-2.34 29.39 29.39 0 001 7.84 29.042 29.042 0 003.58 7.05z" fill="#455A64"/><path d="M251.74 457.81l-33.18-83.29a10.885 10.885 0 014.962-13.72 10.889 10.889 0 015.118-1.28H332a10.89 10.89 0 0110.31 7.39l28.5 84 33.29.16c2.7 0 4.89 4 4.89 6.67l-36.64-.42-120.61.49z" fill="#263238"/><path d="M252.55 378.75a11.563 11.563 0 00-6.68 1.79 8.676 8.676 0 00-1.82 1.51c-1.77 2-4.93 5.86-3.67 11.9 1.26 6.04 5.15 6.87 7 7.07 1.85.2 14.52-3.41 14.52-3.41s4.6-3.91 3-9.05c-1.47-4.41-5.55-9.56-12.35-9.81z" fill="#7ECB20"/><path d="M246.49 399.22s.46 3.23 2.08 4 4.64.67 7 .09c2.36-.58 5.76-1.9 6.16-3.69a7.535 7.535 0 00-.2-4.21 10.548 10.548 0 00-8.52-.79 11.259 11.259 0 00-6.52 4.6z" fill="#F5F5F5"/><path opacity=".4" d="M256.78 383.8a6.08 6.08 0 11-7.38-4.42 6.091 6.091 0 017.38 4.42zM241.43 397a7.8 7.8 0 001.73-5.16 7.601 7.601 0 00-2.26-4.84 14.922 14.922 0 00-.66 6.15c.159 1.345.562 2.65 1.19 3.85zM265.2 391.05a7.732 7.732 0 01-3.95-3.73 6.868 6.868 0 01-.39-5.09 16.9 16.9 0 013.45 4.85c1.18 2.79.89 3.97.89 3.97z" fill="#fff"/><path d="M299.52 412.09a6.717 6.717 0 01-11.468 4.765 6.714 6.714 0 01-1.461-7.324 6.713 6.713 0 016.209-4.151 6.72 6.72 0 016.72 6.71z" fill="#F5F5F5"/><path d="M694.29 457.32c0 .14-137.46.26-307 .26s-307-.12-307-.26 137.43-.26 307-.26 307 .11 307 .26z" fill="#263238"/><path d="M171.66 423c-9.78-5.67-15-18.86-15.4-29.66-.4-10.8 4.1-22.05 13-28.24 9.32-6.52 22.6-6.4 32.18-.27 9.58 6.13 15.2 17.72 14.76 29.09-.44 11.37-6.63 22.22-15.79 29" fill="#7ECB20"/><path d="M187.27 424a12.54 12.54 0 01-.18-2.47c-.05-1.77-.12-4-.19-6.73-.15-5.69-.37-13.54-.75-22.2s-.85-16.51-1.21-22.18c-.16-2.71-.29-5-.4-6.73a11.994 11.994 0 010-2.47c.208.799.339 1.616.39 2.44.19 1.58.43 3.87.69 6.71.52 5.66 1.09 13.51 1.47 22.19.38 8.68.5 16.54.48 22.23 0 2.84 0 5.15-.1 6.74a13.19 13.19 0 01-.2 2.47z" fill="#fff"/><path d="M159.15 390.88c0 .25-1.58.33-3.48.17s-3.43-.49-3.41-.74c.02-.25 1.58-.33 3.48-.17s3.43.49 3.41.74zM159.69 381.19c-.11.23-1.45-.14-3-.83s-2.73-1.44-2.63-1.67c.1-.23 1.45.14 3 .83s2.73 1.48 2.63 1.67zM164.67 374c-.13.21-1.64-.5-3.22-1.8-1.58-1.3-2.55-2.66-2.37-2.82.18-.16 1.43.85 3 2.11 1.57 1.26 2.73 2.3 2.59 2.51zM169.68 367.22c-.23.1-1-1-1.62-2.53-.62-1.53-1-2.8-.78-2.9.22-.1 1 1 1.62 2.53.62 1.53 1.01 2.8.78 2.9zM177.55 362.41c-.23.1-1-1.1-1.53-2.77s-.56-3.11-.32-3.15c.24-.04.69 1.27 1.2 2.87s.88 2.94.65 3.05zM190.67 357c.24.09.09 1.12-.33 2.3-.42 1.18-1 2.08-1.19 2-.19-.08-.09-1.12.33-2.3.42-1.18.95-2.1 1.19-2zM200.4 361.16c.17.19-.45 1-1.39 1.91-.94.91-1.85 1.43-2 1.25-.15-.18.45-1.05 1.39-1.92.94-.87 1.83-1.4 2-1.24zM209 366.69c.14.21-.62 1-1.7 1.71s-2.08 1.15-2.22.94c-.14-.21.62-1 1.7-1.7s2.05-1.16 2.22-.95zM215.05 374.94c.1.24-1.1 1-2.68 1.64-1.58.64-2.94 1-3 .8-.06-.2 1.1-1 2.68-1.64 1.58-.64 2.95-1.03 3-.8zM217.45 383.94c0 .25-1.19.61-2.73.8-1.54.19-2.81.14-2.84-.11-.03-.25 1.19-.61 2.73-.8 1.54-.19 2.81-.14 2.84.11zM218.69 395c-.1.23-1.4-.11-2.9-.77s-2.64-1.37-2.54-1.6c.1-.23 1.4.11 2.9.76s2.64 1.39 2.54 1.61zM217.6 404.52c-.08.23-1.73-.16-3.45-1.29-1.72-1.13-2.74-2.47-2.56-2.64.18-.17 1.44.82 3.06 1.87 1.62 1.05 3.04 1.81 2.95 2.06zM212.65 413.17c-.15.2-1.46-.57-2.72-1.93-1.26-1.36-1.93-2.71-1.72-2.85.21-.14 1.19.93 2.39 2.23 1.2 1.3 2.21 2.38 2.05 2.55zM165.66 414.19c.12.22-1.26 1.17-3.07 2.11-1.81.94-3.38 1.53-3.49 1.3-.11-.23 1.25-1.17 3.07-2.11 1.82-.94 3.37-1.49 3.49-1.3zM161.37 406.36c.1.23-1 1-2.46 1.62-1.46.62-2.74 1-2.84.79-.1-.21 1-1 2.46-1.62 1.46-.62 2.73-1.02 2.84-.79zM158.21 399.43c0 .25-1.32.65-3 .89s-3.12.24-3.16 0c-.04-.24 1.33-.65 3-.89s3.13-.25 3.16 0zM168.56 395.61c.08.24-1.25.85-3 1.05-1.75.2-3.19-.11-3.17-.35.02-.24 1.39-.37 3.07-.56 1.68-.19 3.03-.39 3.1-.14zM177.16 387.06c.07.23-1 .77-2.4.9s-2.56-.17-2.53-.42c.03-.25 1.12-.36 2.44-.49 1.32-.13 2.41-.24 2.49.01zM178.8 380.2c-.08.24-1.22.07-2.55-.39-1.33-.46-2.33-1-2.24-1.26.09-.26 1.22-.07 2.54.39s2.33 1.06 2.25 1.26zM182 373.27c-.17.18-1-.34-1.51-1.31s-.62-1.91-.38-2c.24-.09.67.65 1.17 1.51.5.86.86 1.63.72 1.8zM178.15 401.64c.06.25-.92.7-2.2 1a8.563 8.563 0 01-1.85.27l-.19-.54c.34-.06.55 0 .59.06.04.06-.09.26-.36.46l-.18-.53a8.076 8.076 0 011.77-.61c1.27-.3 2.36-.35 2.42-.11zM179.92 413.79c.1.24-1.16.95-2.81 1.6-1.65.65-3.05 1-3.14.74-.09-.26 1.16-.95 2.81-1.59 1.65-.64 3.05-.98 3.14-.75zM170.21 408.4c.08.24-.75.74-1.87 1.12-1.12.38-2.09.49-2.17.25-.08-.24.76-.74 1.87-1.12 1.11-.38 2.09-.49 2.17-.25zM171 383.67c-.06.24-1.52.1-3.21-.51s-2.92-1.4-2.81-1.62c.11-.22 1.47.18 3.11.76 1.64.58 2.91 1.12 2.91 1.37zM194.46 381c.14.21-.69 1-1.84 1.76-1.15.76-2.21 1.21-2.34 1-.13-.21.68-1 1.83-1.76s2.21-1.23 2.35-1zM195.73 393.18c.06.25-.81.64-1.93.87-1.12.23-2.06.22-2.12 0-.06-.22.82-.64 1.94-.87 1.12-.23 2.06-.25 2.11 0zM197.22 406.9c-.11.23-1.35-.12-2.78-.79-1.43-.67-2.51-1.38-2.4-1.61.11-.23 1.35.12 2.78.78 1.43.66 2.51 1.39 2.4 1.62zM194.08 420.25c-.2.16-1-.5-1.81-1.47s-1.29-1.9-1.1-2.06c.19-.16 1 .5 1.81 1.47s1.29 1.9 1.1 2.06zM193.43 372c.16.19-.38.86-1.29 1.32-.91.46-1.77.49-1.84.25-.07-.24.6-.65 1.43-1.07.83-.42 1.55-.71 1.7-.5zM205 384.3c.08.23-1 .82-2.44 1-1.44.18-2.64-.07-2.62-.31.02-.24 1.14-.4 2.49-.6 1.35-.2 2.44-.33 2.57-.09zM202.66 373.26c.11.22-.95 1-2.45 1.45-1.5.45-2.81.48-2.84.24-.03-.24 1.13-.65 2.56-1.11 1.43-.46 2.61-.84 2.73-.58zM207.46 401.41c0 .25-1.81.41-4 0s-3.82-1.18-3.74-1.41c.08-.23 1.8.13 3.9.5 2.1.37 3.85.65 3.84.91zM203.18 417.45c-.15.2-1.48-.58-2.81-1.92-1.33-1.34-2.11-2.67-1.91-2.82.2-.15 1.27.88 2.56 2.17s2.32 2.37 2.16 2.57z" fill="#263238"/><path d="M184.37 360.2c.13.2-3.66 1.73-8 6.35a39.198 39.198 0 00-10 22.12 49.716 49.716 0 00.6 13.55 105.448 105.448 0 002.54 10.87c.88 3.06 1.69 5.52 2.23 7.22.327.868.585 1.761.77 2.67a15.383 15.383 0 01-1.11-2.55c-.64-1.67-1.55-4.1-2.51-7.15a91.573 91.573 0 01-2.75-10.92 48.579 48.579 0 01-.68-13.8c1.13-9.85 5.86-18 10.45-22.46a28.838 28.838 0 016-4.69 18.369 18.369 0 011.84-1c.37-.15.6-.24.62-.21z" fill="#fff"/><path d="M196.86 423.57c-.2-.1 2.06-3.58 4.12-9.85a55.59 55.59 0 002.46-25.3 47.41 47.41 0 00-3.9-13.5 31.814 31.814 0 00-6.65-9.26 24.195 24.195 0 00-6.52-4.12c-1.7-.71-2.71-.88-2.7-1 .251-.028.505-.011.75.05.706.134 1.402.321 2.08.56a22.764 22.764 0 016.82 4 31.31 31.31 0 017 9.39 46.662 46.662 0 014 13.73 53.695 53.695 0 01-2.76 25.65c-.51 1.58-1.18 2.93-1.68 4.16s-1.07 2.21-1.52 3a16.342 16.342 0 01-1.5 2.49z" fill="#fff"/><path d="M161.37 421.4h50.51l.31 10.11h-50.82V421.4z" fill="#263238"/><path d="M165.66 426.45l2.9 30.87h36.93l2.97-30.53-42.8-.34z" fill="#263238"/><path d="M212.19 431.63c0 .25-11.37.46-25.4.46s-25.41-.21-25.41-.46 11.37-.46 25.41-.46c14.04 0 25.4.21 25.4.46zM207.06 441a7.558 7.558 0 01-1.06 2 29.095 29.095 0 01-3.92 4.63l-.23.22-.23-.24a73.4 73.4 0 00-9.9-8.67h.56l-4.39 3.85-5.19 4.52-.29.25-.29-.25-8.43-7.09.49-.05-4.36 5.32a12.026 12.026 0 01-1.72 1.88c.404-.745.876-1.451 1.41-2.11l4.13-5.52.21-.28.28.23 8.56 6.94h-.57l5.16-4.54 4.41-3.84.27-.23.29.21a65.207 65.207 0 019.85 8.94h-.46a52.181 52.181 0 005.42-6.17z" fill="#455A64"/></svg>