<svg width="111" height="111" viewBox="0 0 111 111" fill="none" xmlns="http://www.w3.org/2000/svg">
<path fill-rule="evenodd" clip-rule="evenodd" d="M80.7961 0H111V57.7499H110.995C110.899 64.5863 109.497 71.3449 106.861 77.6657C104.129 84.2173 100.125 90.1702 95.0761 95.1845C90.0276 100.199 84.0342 104.176 77.4381 106.89C71.0746 109.508 64.2704 110.901 57.3879 110.996V111H56.9426C56.8793 111 56.816 111 56.7527 111.001L56.6326 111.001V111H45.3063V80.2499H56.6326V80.2208C59.7027 80.2208 62.7426 79.6202 65.579 78.4533C68.4153 77.2864 70.9925 75.576 73.1633 73.4198C75.3342 71.2637 77.0562 68.7039 78.231 65.8867C79.4059 63.0696 80.0106 60.0501 80.0106 57.0008H80.0409V29.9999H75.5103V30.0005C69.5606 30.0005 63.6692 31.1645 58.1724 33.426C52.6757 35.6874 47.6812 39.0021 43.4741 43.1807C39.2671 47.3593 35.9298 52.3201 33.653 57.7797C31.3762 63.2394 30.2043 69.091 30.2043 75.0005H30.204V111H0V74.2501H0.00403355C0.100673 64.6563 2.04978 55.1675 5.74811 46.2993C9.54285 37.1999 15.1049 28.9319 22.1166 21.9676C29.1284 15.0032 37.4526 9.47873 46.6139 5.70964C55.5426 2.03623 65.0961 0.100287 74.7553 0.00435939V0H80.0409H80.7961Z" fill="url(#paint0_linear)"/>
<defs>
<linearGradient id="paint0_linear" x1="-6.79592" y1="120.102" x2="116.562" y2="-6.35905" gradientUnits="userSpaceOnUse">
<stop stop-color="#6BAC1B"/>
<stop offset="1" stop-color="#A5C20E"/>
</linearGradient>
</defs>
</svg>
